<svg width="52" height="52" viewBox="0 0 52 52" fill="none" xmlns="http://www.w3.org/2000/svg">
<g clip-path="url(#clip0_357_3968)">
<path d="M0.909877 28.6039C0.53978 28.1162 0.570621 27.5482 0.582958 26.9864C0.582958 26.8074 0.570621 26.6345 0.564453 26.4555C0.607631 25.8011 0.607631 25.1467 0.564453 24.4985C0.570621 24.2392 0.601463 23.9737 0.582958 23.7206C0.545948 23.1773 0.743333 22.7328 1.10726 22.3501C1.32932 22.2451 1.55138 22.1402 1.76727 22.0352L3.9385 21.5166C4.64168 21.4549 5.15982 21.1894 5.17216 20.3807C5.32019 19.8745 5.46207 19.3682 5.6101 18.862C5.62861 18.8126 5.65328 18.7632 5.67179 18.7138C5.71496 18.5903 5.75814 18.4607 5.80132 18.3372C5.81983 18.294 5.83833 18.257 5.85683 18.2138C5.90001 18.0841 5.94936 17.9606 5.99254 17.831C6.22693 17.3124 6.45516 16.7877 6.68955 16.2691C7.05348 15.5344 7.55311 14.8738 7.84919 14.1021C7.89854 13.9478 7.82452 13.8182 7.7505 13.6885C7.40507 13.1205 7.05965 12.5464 6.71423 11.9784C6.35647 11.324 5.87534 10.7067 6.08506 9.87939C6.25161 9.66332 6.37497 9.42255 6.57236 9.22499C6.97329 8.82988 7.35573 8.41625 7.74433 8.00879C7.84302 7.91001 7.94788 7.80506 8.04657 7.70629C8.70041 7.1877 9.17537 6.46539 9.90939 6.04559C10.5386 5.93446 11.0937 6.09498 11.6057 6.45922C11.7784 6.57652 11.9696 6.66295 12.1546 6.76172C12.4384 6.94076 12.7098 7.15066 13.012 7.29883C13.376 7.48404 13.6659 7.8421 14.1223 7.82358C14.8934 7.52725 15.5534 7.02719 16.2874 6.65677C16.4848 6.56417 16.6822 6.47774 16.8795 6.38514L16.9474 6.34192C17.1695 6.30488 17.3545 6.19375 17.5519 6.0888C17.6629 6.07646 17.7739 6.05793 17.848 5.95298C17.9775 5.90977 18.107 5.86038 18.2366 5.81716C18.9583 5.58874 19.6799 5.36649 20.4016 5.13807C20.4695 5.12572 20.5435 5.1072 20.6114 5.09485C20.6422 5.08868 20.673 5.08251 20.6977 5.07016C21.1048 5.05781 21.3515 4.86643 21.4132 4.44662C21.4379 4.26142 21.4934 4.07621 21.5366 3.891C21.7093 3.16869 21.882 2.45255 22.0547 1.73024C22.1596 1.50799 22.2645 1.29192 22.3693 1.06967C22.6716 0.78568 23.0232 0.588125 23.4426 0.532562L23.4858 0.544909L23.5289 0.532562C23.8559 0.532562 24.189 0.532562 24.5159 0.532562C25.1697 0.532562 25.8235 0.532562 26.4712 0.532562C27.1929 0.625166 27.9639 0.390569 28.6239 0.878284C28.8522 1.12523 29.0187 1.42156 29.1359 1.73641C29.3086 2.45873 29.4813 3.17486 29.654 3.89717C29.7836 4.44045 29.7466 5.11337 30.5916 5.09485C31.1468 5.25537 31.7019 5.40971 32.2571 5.57022C32.2879 5.58257 32.3249 5.60109 32.3558 5.61344L32.732 5.72456C32.732 5.72456 32.7629 5.7616 32.7875 5.7616L32.806 5.79864L32.843 5.7863C32.9109 5.81099 32.9849 5.83568 33.0528 5.86038C33.0836 5.87273 33.1083 5.88507 33.1391 5.89742C33.207 5.92212 33.2748 5.94064 33.3427 5.96533C33.7806 6.2061 34.2371 6.40366 34.712 6.56417C35.4337 6.95928 36.1492 7.35439 36.8709 7.7495C37.0683 7.91001 37.2595 7.84828 37.4508 7.73715C37.9195 7.45934 38.3822 7.17536 38.8448 6.89137C38.999 6.81111 39.1594 6.73703 39.3074 6.63825C39.8811 6.26784 40.4547 5.90359 41.1826 6.02089C41.4231 6.15671 41.676 6.26784 41.8796 6.46539C42.2373 6.82346 42.6013 7.16301 42.9652 7.5149C43.1009 7.71246 43.2674 7.87915 43.4587 8.01497C43.9706 8.67554 44.7046 9.13856 45.1118 9.89174C45.1118 9.92878 45.1117 9.95348 45.1426 9.97817C45.2289 10.5029 45.0871 10.9659 44.8033 11.4166C44.3592 12.1204 43.9459 12.8427 43.5265 13.565C43.4278 13.7317 43.2859 13.8861 43.3476 14.1021C43.6499 14.8738 44.1433 15.5344 44.5073 16.2691C44.6368 16.6457 44.791 17.0099 45.0069 17.3433C45.0316 17.4112 45.0562 17.4791 45.0809 17.5408L45.1179 17.6211C45.1426 17.6952 45.1673 17.7631 45.1919 17.8372V17.8742L45.2228 17.8927C45.2351 17.9359 45.2475 17.9792 45.2598 18.0224C45.2783 18.0532 45.2968 18.0903 45.3091 18.1212C45.3338 18.1829 45.3585 18.2446 45.3832 18.3064C45.3832 18.3187 45.3647 18.3311 45.3647 18.3372C45.377 18.3557 45.3955 18.3743 45.414 18.3928C45.4263 18.436 45.4387 18.4792 45.451 18.5163L45.5004 18.6274C45.5312 18.7262 45.562 18.8311 45.5929 18.9299L45.5805 18.9546L45.6114 18.9669C45.6361 19.0534 45.6669 19.1398 45.6916 19.2262L45.6792 19.2509L45.7101 19.2633L45.7471 19.3991C45.7224 19.4732 45.7409 19.5349 45.8026 19.5781C45.8211 19.6522 45.8396 19.7201 45.8581 19.7942C45.8704 19.8251 45.8828 19.8559 45.8951 19.893C45.9445 20.1584 45.9691 20.4301 46.0925 20.6708C46.111 21.0968 46.2899 21.3623 46.7587 21.3623C46.7957 21.3808 46.8389 21.3932 46.8759 21.4117C46.9437 21.4179 47.0116 21.4302 47.0794 21.4364C47.7826 21.671 48.4981 21.8377 49.226 21.9735C49.5776 22.0908 49.9168 22.2142 50.2129 22.4427C50.7557 23.0415 50.5707 23.7947 50.6385 24.4923C50.5953 25.1467 50.5953 25.8011 50.6385 26.4493C50.6324 26.7889 50.6077 27.1223 50.62 27.4618C50.6385 27.8816 50.509 28.252 50.2869 28.5978C49.9847 28.8817 49.6146 29.0423 49.2198 29.1472C48.4981 29.3077 47.7764 29.4559 47.0794 29.6905C46.2714 29.7769 46.1727 29.8633 46.074 30.561L45.4202 32.7341V32.7464C45.4202 32.7464 45.3893 32.7896 45.377 32.8143C45.2536 33.1415 45.1303 33.4749 45.0007 33.8021C44.8095 34.0676 44.7108 34.3762 44.5936 34.6787C44.1988 35.4011 43.8041 36.1172 43.4093 36.8395C43.2304 37.0865 43.3538 37.3025 43.4772 37.5124C43.8966 38.2286 44.3099 38.9447 44.7478 39.6485C45.0069 40.0621 45.1796 40.4819 45.1673 40.9696C45.1179 41.1363 45.0747 41.2968 45.0254 41.4635C44.5689 41.9513 44.1063 42.4451 43.6499 42.9328C43.3846 43.1304 43.1564 43.365 42.959 43.6243C42.3669 44.075 41.9598 44.7355 41.2813 45.0874C41.1826 45.1121 41.0839 45.1368 40.9913 45.1615C40.5534 45.1615 40.171 45.0319 39.8009 44.8035C39.0668 44.3466 38.3266 43.9206 37.5803 43.4823C37.3582 43.3527 37.13 43.1983 36.8648 43.3897L34.7244 44.5503C34.3913 44.6862 34.0459 44.8035 33.7436 45.0134C33.6079 45.0627 33.4722 45.106 33.3365 45.1553C33.3118 45.1677 33.2872 45.18 33.2625 45.1924C33.2255 45.2047 33.1823 45.2171 33.1453 45.2294C33.1083 45.248 33.0713 45.2665 33.0343 45.2788C32.9417 45.3159 32.8492 45.3591 32.7505 45.3961C32.0597 45.606 31.3688 45.8159 30.6718 46.0258C30.2154 46.0567 29.7959 46.137 29.7897 46.7296C29.7712 46.7667 29.7589 46.8099 29.7404 46.8469C29.7281 46.9148 29.7219 46.9827 29.7096 47.0506C29.469 47.7544 29.3271 48.4891 29.1544 49.2114C29.0619 49.6065 28.8892 49.9646 28.6116 50.2609C28.2662 50.4832 27.8961 50.6066 27.4766 50.5881C27.1374 50.5758 26.8043 50.6005 26.465 50.6066C25.8112 50.6066 25.1574 50.6066 24.5097 50.6066C24.3308 50.6005 24.1519 50.5758 23.9731 50.5881C23.3624 50.6375 22.8073 50.5202 22.357 50.0634C22.2459 49.8102 22.1411 49.5571 22.0301 49.304C21.8388 48.5508 21.6415 47.7976 21.4502 47.0506C21.4379 46.9827 21.4317 46.9148 21.4194 46.8469C21.4009 46.8099 21.3886 46.7667 21.3701 46.7296C21.3639 46.0629 20.8519 46.069 20.3955 46.0011C19.6799 45.7789 18.9583 45.5505 18.2427 45.3282C18.144 45.248 18.0392 45.1986 17.9096 45.1924C17.885 45.18 17.8603 45.1677 17.8356 45.1553C17.6999 45.106 17.5642 45.0627 17.4285 45.0134C17.0338 44.8281 16.6452 44.6368 16.2504 44.4516C15.5102 44.1182 14.8687 43.5934 14.0977 43.3218C13.9003 43.2724 13.7584 43.3959 13.6042 43.4823C12.8702 43.9145 12.1361 44.3343 11.4145 44.7788C10.9642 45.0566 10.5077 45.2109 9.97724 45.1183C9.87855 45.0813 9.77986 45.0442 9.68117 45.0072C9.12602 44.4824 8.57088 43.9577 8.01573 43.4329C7.88003 43.2415 7.71966 43.0687 7.52227 42.939C7.06582 42.3525 6.42432 41.9327 6.05422 41.2722C6.03572 41.1734 6.01721 41.0808 5.99254 40.982C5.99871 40.5005 6.13441 40.0621 6.41198 39.6608C6.59703 39.3954 6.73273 39.099 6.89311 38.8212C7.17068 38.3706 7.44208 37.9199 7.71966 37.463C7.88003 37.1976 7.88003 36.9506 7.64564 36.7222C7.26937 36.0493 6.89311 35.3764 6.51684 34.7034C6.33179 34.2775 6.14674 33.8515 5.95553 33.4193C5.90001 33.2526 5.8445 33.0921 5.78898 32.9254C5.77665 32.8946 5.76431 32.8699 5.75197 32.839C5.72113 32.7711 5.69646 32.697 5.66562 32.6291C5.63478 32.5242 5.6101 32.4254 5.57926 32.3204V32.2772L5.54842 32.2525C5.53608 32.2093 5.52375 32.1723 5.51141 32.129C5.52992 32.055 5.51758 31.9932 5.44973 31.9438C5.43739 31.9068 5.43122 31.8698 5.41889 31.8327C5.43739 31.7339 5.43122 31.6413 5.34487 31.5673C5.32636 31.487 5.30169 31.4067 5.28319 31.3327C5.28319 31.3203 5.30169 31.308 5.30169 31.3018C5.28935 31.2833 5.27085 31.2709 5.25851 31.2524C5.24001 31.1845 5.2215 31.1104 5.20917 31.0425C5.23384 30.9684 5.2215 30.9129 5.15982 30.8635C5.15365 30.8264 5.14131 30.7894 5.13515 30.7585C5.15365 30.6474 5.14748 30.5486 5.0673 30.456C5.0673 30.0362 4.85757 29.8016 4.4443 29.7337C4.25308 29.7028 4.06803 29.6534 3.88299 29.6102C3.1613 29.4374 2.44578 29.2645 1.72409 29.0916C1.40951 28.9743 1.1196 28.8077 0.872867 28.5854L0.909877 28.6039ZM37.1177 42.2476C37.4754 42.2044 37.7838 42.3464 38.0799 42.5316C38.8448 43.0008 39.622 43.4514 40.3807 43.9392C40.7138 44.1552 40.9667 44.1305 41.2442 43.8527C42.114 42.9699 42.996 42.0871 43.8781 41.2166C44.1557 40.945 44.1988 40.698 43.983 40.3523C43.4895 39.5806 43.0269 38.7904 42.5519 38.0125C42.1942 37.4322 42.151 36.8333 42.5211 36.253C43.7732 34.3083 44.606 32.1908 45.1303 29.9498C45.2783 29.3262 45.6484 28.9558 46.2652 28.8015C47.1843 28.5731 48.0972 28.3261 49.0163 28.1039C49.411 28.0113 49.5838 27.8014 49.5714 27.3816C49.5529 26.1715 49.5529 24.9615 49.5714 23.7515C49.5776 23.3008 49.3802 23.1032 48.9669 23.0106C48.1404 22.8254 47.32 22.5908 46.4934 22.4056C45.7039 22.2328 45.2413 21.7883 45.0686 20.9919C44.5936 18.8188 43.7362 16.7938 42.5519 14.9109C42.1695 14.2997 42.1942 13.7132 42.5519 13.1144C43.0207 12.3488 43.471 11.571 43.9583 10.8178C44.1865 10.4659 44.1618 10.2066 43.8658 9.91643C42.9899 9.0583 42.1263 8.18783 41.2689 7.31118C40.9852 7.02102 40.7261 6.97163 40.3683 7.20622C39.6035 7.70629 38.8139 8.16313 38.0244 8.6385C37.4816 8.9657 36.9079 9.03361 36.359 8.68172C34.3975 7.42847 32.2756 6.57652 30.0118 6.05176C29.3765 5.90359 28.9879 5.51466 28.8337 4.87878C28.6116 3.97743 28.3772 3.07609 28.1613 2.17474C28.0688 1.7858 27.8714 1.6006 27.4458 1.60677C26.2368 1.62529 25.0278 1.62529 23.8189 1.60677C23.3809 1.6006 23.1589 1.77346 23.0663 2.19326C22.8751 3.02052 22.6469 3.83544 22.468 4.66887C22.2953 5.47762 21.8327 5.94681 21.0185 6.12584C18.8657 6.60121 16.8487 7.43465 14.9921 8.6385C14.3999 9.02126 13.7954 9.01509 13.1909 8.64467C12.4075 8.16931 11.618 7.70629 10.847 7.2124C10.5139 6.99632 10.261 7.01484 9.98341 7.29883C9.11369 8.18783 8.23162 9.06448 7.34956 9.93496C7.07199 10.2066 7.02881 10.4535 7.2447 10.7931C7.73816 11.5648 8.20078 12.355 8.67574 13.1329C9.0335 13.7132 9.07668 14.3182 8.70041 14.8924C7.44208 16.837 6.61553 18.9546 6.09123 21.1956C5.94936 21.813 5.56076 22.1896 4.9501 22.3439C4.03102 22.5723 3.11812 22.8069 2.19288 23.0292C1.82278 23.1218 1.6439 23.3132 1.65007 23.7144C1.66857 24.943 1.66857 26.1654 1.65007 27.3939C1.6439 27.8199 1.82895 28.0174 2.21755 28.11C3.08728 28.3199 3.95701 28.5607 4.82673 28.7644C5.53608 28.9311 5.9617 29.3324 6.12207 30.0547C6.60936 32.2525 7.37423 34.3454 8.6449 36.2283C9.052 36.8272 9.02733 37.4445 8.63873 38.0681C8.1576 38.8274 7.71349 39.6053 7.23236 40.3708C7.04731 40.661 7.03498 40.9079 7.28788 41.1549C8.20078 42.0686 9.11369 42.9822 10.0266 43.8959C10.2795 44.149 10.5201 44.1429 10.81 43.9577C11.5687 43.4761 12.352 43.0316 13.1107 42.5563C13.7584 42.1426 14.3876 42.1365 15.0352 42.5501C16.9042 43.7292 18.9089 44.5689 21.0678 45.0381C21.7895 45.1924 22.2398 45.6122 22.4063 46.3592C22.5975 47.2359 22.8443 48.1002 23.054 48.9706C23.1465 49.3596 23.3501 49.5448 23.7695 49.5386C24.9785 49.5201 26.1875 49.5201 27.3965 49.5386C27.8344 49.5448 28.0565 49.3719 28.149 48.9521C28.3279 48.1557 28.5746 47.3717 28.7288 46.5753C28.9015 45.6801 29.3888 45.1924 30.2894 44.9948C32.3928 44.5256 34.3604 43.7046 36.1801 42.5377C36.4577 42.3587 36.7537 42.2167 37.1053 42.2476H37.1177Z" fill="#FEEBA6" stroke="#FEEBA6" stroke-width="0.32" stroke-miterlimit="10"/>
<path d="M25.6198 41.3524C16.867 41.2907 9.84748 34.3515 9.84131 25.5788C9.83514 16.8185 16.8485 9.81147 25.6013 9.79912C34.3602 9.78677 41.3797 16.8062 41.3797 25.5603C41.3797 34.3515 34.3726 41.2845 25.6198 41.3524ZM25.6074 10.8548C17.5085 10.8548 10.8961 17.4482 10.8899 25.5356C10.8899 33.6724 17.4715 40.2782 25.5828 40.2905C33.7064 40.2967 40.3188 33.6971 40.3249 25.585C40.3249 17.4544 33.7311 10.861 25.6074 10.861V10.8548Z" fill="#FEEBA6" stroke="#FEEBA6" stroke-width="0.32" stroke-miterlimit="10"/>
<path d="M25.1016 31.0672C25.1016 29.7893 25.0955 28.5175 25.1016 27.2396C25.1016 26.9432 25.0153 26.8198 24.7192 26.7333C23.2388 26.3012 22.2766 25.0171 22.2827 23.5416C22.2951 22.0846 23.2512 20.819 24.713 20.3992C25.0461 20.3066 25.1016 20.1523 25.1016 19.8498C25.0893 18.6583 25.1016 17.4606 25.0955 16.2691C25.0955 15.8925 25.1387 15.5283 25.5889 15.5221C26.0762 15.5159 26.1132 15.8987 26.1132 16.2938C26.1071 17.4544 26.1256 18.6151 26.1009 19.7757C26.0947 20.1399 26.1688 20.3128 26.5574 20.4239C27.9761 20.8314 28.9198 22.1155 28.9198 23.5663C28.9198 24.9986 27.9637 26.3135 26.5574 26.7086C26.1626 26.8198 26.1009 27.005 26.1009 27.3569C26.1132 29.8448 26.1071 32.3266 26.1009 34.8146C26.1009 34.9936 26.1379 35.1788 26.0454 35.3455C25.9282 35.5431 25.7555 35.6665 25.5149 35.611C25.2435 35.5554 25.0955 35.3702 25.0955 35.0862C25.0955 34.3639 25.0955 33.6478 25.0955 32.9255C25.0955 32.3019 25.0955 31.6846 25.0955 31.061L25.1016 31.0672ZM25.6013 21.3253C24.3429 21.3253 23.356 22.3069 23.3499 23.5539C23.3437 24.8133 24.3615 25.8443 25.6136 25.8382C26.8719 25.8382 27.8774 24.8072 27.865 23.5416C27.8527 22.2945 26.8596 21.3253 25.6013 21.3253Z" fill="#FEEBA6" stroke="#FEEBA6" stroke-width="0.32" stroke-miterlimit="10"/>
<path d="M32.991 19.7325C32.991 20.8746 33.0033 22.0229 32.9848 23.165C32.9848 23.4922 33.0526 23.6465 33.4042 23.7453C34.8414 24.1528 35.8037 25.4616 35.8037 26.9124C35.8037 28.3693 34.8414 29.6534 33.3981 30.0732C33.0773 30.1659 32.991 30.3078 32.991 30.6165C33.0033 32.0735 32.991 33.5243 32.9971 34.9813C32.9971 35.3146 32.9046 35.5678 32.5468 35.6295C32.2076 35.6912 31.9794 35.4196 31.9794 34.9504C31.9794 33.5305 31.967 32.1105 31.9794 30.6844C31.9794 30.3202 31.9053 30.1535 31.5167 30.0424C30.1042 29.6349 29.179 28.3632 29.1666 26.9C29.1543 25.4986 30.098 24.2022 31.4921 23.7823C31.8868 23.665 31.9794 23.486 31.9794 23.1033C31.9609 20.8499 31.967 18.5965 31.9732 16.337C31.9732 16.158 31.9362 15.9727 32.0349 15.8122C32.1521 15.6147 32.3248 15.4974 32.5653 15.5468C32.8676 15.6085 32.991 15.8184 32.991 16.1209C32.991 16.9729 32.991 17.8187 32.991 18.6706C32.991 19.0287 32.991 19.3867 32.991 19.751V19.7325ZM30.2276 26.8815C30.2276 28.1409 31.2268 29.1596 32.4913 29.1719C33.7065 29.1842 34.7366 28.1594 34.7489 26.9247C34.7613 25.6529 33.762 24.6528 32.4852 24.659C31.2268 24.659 30.2399 25.6406 30.2337 26.8877L30.2276 26.8815Z" fill="#FEEBA6" stroke="#FEEBA6" stroke-width="0.32" stroke-miterlimit="10"/>
<path d="M19.2421 20.0658C19.2421 21.3252 19.2545 22.5846 19.236 23.8379C19.236 24.1651 19.31 24.3194 19.6492 24.4182C21.1049 24.8503 22.0487 26.1283 22.0425 27.5853C22.0364 29.0422 21.0803 30.314 19.6246 30.7338C19.2915 30.8326 19.236 30.9807 19.236 31.2832C19.2483 32.4933 19.236 33.7033 19.2421 34.9133C19.2421 35.2837 19.1558 35.6048 18.7425 35.6171C18.2922 35.6295 18.212 35.2837 18.2182 34.901C18.2244 33.6909 18.212 32.4809 18.2305 31.2709C18.2305 30.956 18.138 30.8264 17.8234 30.7338C16.3677 30.3078 15.4178 29.0422 15.4116 27.5791C15.4116 26.1159 16.3615 24.8318 17.8111 24.4182C18.1688 24.3194 18.2305 24.1466 18.2244 23.8317C18.2182 21.3808 18.2244 18.9299 18.2244 16.4789C18.2244 16.3308 18.2244 16.1826 18.2244 16.0406C18.2367 15.7258 18.4156 15.5406 18.7055 15.5282C19.0262 15.5159 19.2236 15.7196 19.2298 16.053C19.2421 16.5098 19.2298 16.9667 19.2298 17.4235C19.2298 18.3063 19.2298 19.1892 19.2298 20.072L19.2421 20.0658ZM20.9939 27.5914C20.9939 26.3258 20.0008 25.3134 18.7363 25.301C17.515 25.2887 16.4911 26.3073 16.4787 27.5482C16.4664 28.82 17.4657 29.8201 18.7425 29.8201C20.0008 29.8201 20.9939 28.8385 21.0001 27.5914H20.9939Z" fill="#FEEBA6" stroke="#FEEBA6" stroke-width="0.32" stroke-miterlimit="10"/>
</g>
<defs>
<clipPath id="clip0_357_3968">
<rect width="52" height="52" fill="white"/>
</clipPath>
</defs>
</svg>
