<svg width="52" height="52" viewBox="0 0 52 52" fill="none" xmlns="http://www.w3.org/2000/svg">
<g clip-path="url(#clip0_357_4012)">
<path d="M27.6187 2.21422L32.0132 16.3459C32.4555 17.7729 33.7258 18.7373 35.1562 18.7373H49.3654C51.0121 18.7373 51.6896 20.9319 50.3628 21.9455L38.8637 30.6843C37.7063 31.5602 37.217 33.1249 37.6592 34.5518L42.0537 48.6836C42.5619 50.3172 40.774 51.6752 39.4472 50.6715L27.9481 41.9326C26.7906 41.0568 25.2191 41.0568 24.0617 41.9326L12.5626 50.6715C11.2358 51.6851 9.44788 50.327 9.95602 48.6836L14.3505 34.5518C14.7928 33.1249 14.3129 31.57 13.146 30.6843L1.64694 21.9455C0.320122 20.9319 0.997646 18.7373 2.64441 18.7373H16.8536C18.2839 18.7373 19.5543 17.7729 19.9966 16.3459L24.3911 2.21422C24.8992 0.580611 27.1106 0.580611 27.6187 2.21422Z" stroke="#FEEBA6" stroke-width="1.5" stroke-miterlimit="10"/>
<path d="M32.3126 29.1939L32.3117 29.1946C31.5486 29.7773 31.2298 30.8037 31.5165 31.728L31.5165 31.7281L33.775 39.0007L33.7756 39.0026C33.8386 39.2027 33.7636 39.3759 33.6326 39.476C33.5055 39.5731 33.3521 39.586 33.2093 39.4777C33.2093 39.4777 33.2092 39.4777 33.2092 39.4776L27.2913 34.9811C27.291 34.9809 27.2907 34.9806 27.2904 34.9804C26.5171 34.3905 25.4616 34.3937 24.6831 34.9788L24.6811 34.9804L18.7623 39.4776C18.7622 39.4777 18.7622 39.4777 18.7621 39.4777C18.6171 39.5878 18.4629 39.5739 18.3378 39.4789C18.2095 39.3815 18.1317 39.2088 18.1964 39.001L18.1965 39.0007L20.4549 31.7281L20.4555 31.7262C20.7396 30.7976 20.4361 29.7787 19.6577 29.193C19.6574 29.1928 19.6571 29.1925 19.6568 29.1923L13.7399 24.6965L13.7398 24.6964C13.588 24.5812 13.5424 24.3991 13.598 24.2223C13.6533 24.0461 13.7858 23.9413 13.955 23.9413H21.2666C22.2287 23.9413 23.075 23.2978 23.3629 22.3586C23.363 22.3583 23.3631 22.3579 23.3632 22.3575L25.6204 15.0889C25.6205 15.0886 25.6206 15.0883 25.6207 15.088C25.7404 14.7103 26.2135 14.7292 26.3213 15.084L26.429 15.4387H26.4596L28.6082 22.3575C28.6083 22.3579 28.6085 22.3583 28.6086 22.3586C28.8965 23.2978 29.7428 23.9413 30.7049 23.9413H38.0165C38.1843 23.9413 38.3147 24.0445 38.3695 24.2208C38.4249 24.399 38.3785 24.5826 38.2302 24.6976C38.2298 24.6978 38.2294 24.6981 38.229 24.6984L32.3126 29.1939Z" stroke="#FEEBA6"/>
</g>
<defs>
<clipPath id="clip0_357_4012">
<rect width="52" height="52" fill="white"/>
</clipPath>
</defs>
</svg>
