<svg width="21" height="21" viewBox="0 0 21 21" fill="none" xmlns="http://www.w3.org/2000/svg">
<g id="Group 15">
<path id="Vector" d="M6.67132 10.5512C6.67132 8.70873 8.16414 7.21468 10.0061 7.21468C11.8481 7.21468 13.3417 8.70873 13.3417 10.5512C13.3417 12.3938 11.8481 13.8878 10.0061 13.8878C8.16414 13.8878 6.67132 12.3938 6.67132 10.5512ZM4.86816 10.5512C4.86816 13.3898 7.16842 15.6907 10.0061 15.6907C12.8438 15.6907 15.1441 13.3898 15.1441 10.5512C15.1441 7.71273 12.8438 5.4118 10.0061 5.4118C7.16842 5.4118 4.86816 7.71273 4.86816 10.5512ZM14.1468 5.20802C14.1467 5.44557 14.217 5.67781 14.3489 5.87538C14.4807 6.07295 14.6682 6.22697 14.8875 6.31796C15.1069 6.40895 15.3483 6.43283 15.5813 6.38658C15.8142 6.34033 16.0282 6.22603 16.1962 6.05812C16.3642 5.89022 16.4786 5.67626 16.525 5.44329C16.5715 5.21032 16.5478 4.96882 16.457 4.74932C16.3662 4.52982 16.2124 4.34217 16.015 4.21012C15.8176 4.07806 15.5854 4.00753 15.348 4.00744H15.3475C15.0292 4.00758 14.7239 4.13411 14.4988 4.35921C14.2736 4.58432 14.147 4.88961 14.1468 5.20802ZM5.9637 18.6982C4.98815 18.6538 4.45791 18.4913 4.10554 18.3539C3.63838 18.172 3.30506 17.9553 2.95461 17.6053C2.60416 17.2552 2.38723 16.9221 2.20616 16.4548C2.0688 16.1025 1.9063 15.5719 1.86196 14.5961C1.81345 13.5411 1.80376 13.2242 1.80376 10.5513C1.80376 7.87847 1.81425 7.56243 1.86196 6.50654C1.90638 5.53071 2.07008 5.0012 2.20616 4.64784C2.38803 4.18055 2.60464 3.84713 2.95461 3.49658C3.30458 3.14603 3.63758 2.92904 4.10554 2.74792C4.45775 2.61052 4.98815 2.44797 5.9637 2.40361C7.01841 2.35509 7.33524 2.3454 10.0061 2.3454C12.677 2.3454 12.9942 2.35589 14.0497 2.40361C15.0253 2.44805 15.5546 2.6118 15.9079 2.74792C16.3751 2.92904 16.7084 3.14651 17.0588 3.49658C17.4093 3.84665 17.6254 4.18055 17.8073 4.64784C17.9446 5.00016 18.1071 5.53071 18.1515 6.50654C18.2 7.56243 18.2097 7.87847 18.2097 10.5513C18.2097 13.2242 18.2 13.5402 18.1515 14.5961C18.1071 15.5719 17.9438 16.1023 17.8073 16.4548C17.6254 16.9221 17.4088 17.2555 17.0588 17.6053C16.7089 17.955 16.3751 18.172 15.9079 18.3539C15.5557 18.4913 15.0253 18.6539 14.0497 18.6982C12.995 18.7468 12.6782 18.7565 10.0061 18.7565C7.33404 18.7565 7.01809 18.7468 5.9637 18.6982ZM5.88085 0.602972C4.81565 0.651495 4.08777 0.820445 3.45211 1.06787C2.7938 1.32337 2.2365 1.66616 1.67961 2.22233C1.12272 2.7785 0.78091 3.33684 0.525477 3.99534C0.278129 4.63159 0.109227 5.35928 0.0607184 6.42478C0.0114088 7.49197 0.00012207 7.83315 0.00012207 10.5512C0.00012207 13.2693 0.0114088 13.6105 0.0607184 14.6777C0.109227 15.7433 0.278129 16.4709 0.525477 17.1071C0.78091 17.7653 1.1228 18.3242 1.67961 18.8802C2.23642 19.4361 2.7938 19.7784 3.45211 20.0346C4.08897 20.282 4.81565 20.451 5.88085 20.4995C6.94829 20.548 7.28881 20.5601 10.0061 20.5601C12.7234 20.5601 13.0645 20.5488 14.1314 20.4995C15.1967 20.451 15.9241 20.282 16.5601 20.0346C17.218 19.7784 17.7757 19.4363 18.3326 18.8802C18.8895 18.324 19.2306 17.7653 19.4868 17.1071C19.7341 16.4709 19.9038 15.7432 19.9515 14.6777C20 13.6097 20.0113 13.2693 20.0113 10.5512C20.0113 7.83315 20 7.49197 19.9515 6.42478C19.903 5.3592 19.7341 4.63119 19.4868 3.99534C19.2306 3.33724 18.8886 2.77939 18.3326 2.22233C17.7766 1.66528 17.218 1.32337 16.5609 1.06787C15.9241 0.820445 15.1966 0.650695 14.1322 0.602972C13.0653 0.554449 12.7242 0.542358 10.0069 0.542358C7.28961 0.542358 6.94829 0.553648 5.88085 0.602972Z" fill="white"/>
<path id="Vector_2" d="M6.67132 10.5512C6.67132 8.70873 8.16414 7.21468 10.0061 7.21468C11.8481 7.21468 13.3417 8.70873 13.3417 10.5512C13.3417 12.3938 11.8481 13.8878 10.0061 13.8878C8.16414 13.8878 6.67132 12.3938 6.67132 10.5512ZM4.86816 10.5512C4.86816 13.3898 7.16842 15.6907 10.0061 15.6907C12.8438 15.6907 15.1441 13.3898 15.1441 10.5512C15.1441 7.71273 12.8438 5.4118 10.0061 5.4118C7.16842 5.4118 4.86816 7.71273 4.86816 10.5512ZM14.1468 5.20802C14.1467 5.44557 14.217 5.67781 14.3489 5.87538C14.4807 6.07295 14.6682 6.22697 14.8875 6.31796C15.1069 6.40895 15.3483 6.43283 15.5813 6.38658C15.8142 6.34033 16.0282 6.22603 16.1962 6.05812C16.3642 5.89022 16.4786 5.67626 16.525 5.44329C16.5715 5.21032 16.5478 4.96882 16.457 4.74932C16.3662 4.52982 16.2124 4.34217 16.015 4.21012C15.8176 4.07806 15.5854 4.00753 15.348 4.00744H15.3475C15.0292 4.00758 14.7239 4.13411 14.4988 4.35921C14.2736 4.58432 14.147 4.88961 14.1468 5.20802ZM5.9637 18.6982C4.98815 18.6538 4.45791 18.4913 4.10554 18.3539C3.63838 18.172 3.30506 17.9553 2.95461 17.6053C2.60416 17.2552 2.38723 16.9221 2.20616 16.4548C2.0688 16.1025 1.9063 15.5719 1.86196 14.5961C1.81345 13.5411 1.80376 13.2242 1.80376 10.5513C1.80376 7.87847 1.81425 7.56243 1.86196 6.50654C1.90638 5.53071 2.07008 5.0012 2.20616 4.64784C2.38803 4.18055 2.60464 3.84713 2.95461 3.49658C3.30458 3.14603 3.63758 2.92904 4.10554 2.74792C4.45775 2.61052 4.98815 2.44797 5.9637 2.40361C7.01841 2.35509 7.33524 2.3454 10.0061 2.3454C12.677 2.3454 12.9942 2.35589 14.0497 2.40361C15.0253 2.44805 15.5546 2.6118 15.9079 2.74792C16.3751 2.92904 16.7084 3.14651 17.0588 3.49658C17.4093 3.84665 17.6254 4.18055 17.8073 4.64784C17.9446 5.00016 18.1071 5.53071 18.1515 6.50654C18.2 7.56243 18.2097 7.87847 18.2097 10.5513C18.2097 13.2242 18.2 13.5402 18.1515 14.5961C18.1071 15.5719 17.9438 16.1023 17.8073 16.4548C17.6254 16.9221 17.4088 17.2555 17.0588 17.6053C16.7089 17.955 16.3751 18.172 15.9079 18.3539C15.5557 18.4913 15.0253 18.6539 14.0497 18.6982C12.995 18.7468 12.6782 18.7565 10.0061 18.7565C7.33404 18.7565 7.01809 18.7468 5.9637 18.6982ZM5.88085 0.602972C4.81565 0.651495 4.08777 0.820445 3.45211 1.06787C2.7938 1.32337 2.2365 1.66616 1.67961 2.22233C1.12272 2.7785 0.78091 3.33684 0.525477 3.99534C0.278129 4.63159 0.109227 5.35928 0.0607184 6.42478C0.0114088 7.49197 0.00012207 7.83315 0.00012207 10.5512C0.00012207 13.2693 0.0114088 13.6105 0.0607184 14.6777C0.109227 15.7433 0.278129 16.4709 0.525477 17.1071C0.78091 17.7653 1.1228 18.3242 1.67961 18.8802C2.23642 19.4361 2.7938 19.7784 3.45211 20.0346C4.08897 20.282 4.81565 20.451 5.88085 20.4995C6.94829 20.548 7.28881 20.5601 10.0061 20.5601C12.7234 20.5601 13.0645 20.5488 14.1314 20.4995C15.1967 20.451 15.9241 20.282 16.5601 20.0346C17.218 19.7784 17.7757 19.4363 18.3326 18.8802C18.8895 18.324 19.2306 17.7653 19.4868 17.1071C19.7341 16.4709 19.9038 15.7432 19.9515 14.6777C20 13.6097 20.0113 13.2693 20.0113 10.5512C20.0113 7.83315 20 7.49197 19.9515 6.42478C19.903 5.3592 19.7341 4.63119 19.4868 3.99534C19.2306 3.33724 18.8886 2.77939 18.3326 2.22233C17.7766 1.66528 17.218 1.32337 16.5609 1.06787C15.9241 0.820445 15.1966 0.650695 14.1322 0.602972C13.0653 0.554449 12.7242 0.542358 10.0069 0.542358C7.28961 0.542358 6.94829 0.553648 5.88085 0.602972Z" fill="white"/>
</g>
</svg>
