<svg width="52" height="52" viewBox="0 0 52 52" fill="none" xmlns="http://www.w3.org/2000/svg">
<g clip-path="url(#clip0_357_3980)">
<path d="M8.27002 25.99C8.27002 16.2 16.2 8.27001 25.99 8.25001C35.77 8.23001 43.71 16.16 43.75 25.95C43.78 35.76 35.8 43.75 25.99 43.73C16.2 43.71 8.27002 35.77 8.28002 25.98L8.27002 25.99ZM13.81 37.02C14.4 31.04 17.52 27.23 23.17 25.43C19.02 22.57 19.59 18.34 21.49 16.16C23.71 13.62 27.58 13.38 30.05 15.67C31.23 16.76 31.9 18.12 31.98 19.73C32.1 22.21 30.93 24.02 28.82 25.42C34.54 27.23 37.63 31.09 38.22 37C43.61 31.39 44.5 21.36 37.85 14.43C31.48 7.79001 20.54 7.80001 14.17 14.43C7.53002 21.34 8.41002 31.4 13.81 37.01V37.02ZM36.94 36.62C36.53 32.72 34.79 29.75 31.48 27.86C27.63 25.67 23.72 25.79 20 28.19C17 30.12 15.42 32.98 15.09 36.62H36.94ZM25.98 15.32C23.32 15.33 21.21 17.46 21.23 20.12C21.25 22.76 23.44 24.93 26.04 24.89C28.67 24.86 30.81 22.68 30.79 20.05C30.77 17.39 28.65 15.31 25.98 15.32ZM14.87 37.95C18.36 41.34 22.52 42.86 27.3 42.5C31.11 42.21 34.44 40.74 37.41 37.95H14.87Z" fill="#FEEBA6"/>
<path d="M20.7501 2.79002C20.2601 2.46002 19.8701 2.29002 19.6301 2.00002C19.4501 1.79002 19.4701 1.43002 19.4001 1.13002C19.6801 1.09002 20.0201 0.930015 20.2201 1.04002C21.0901 1.52002 21.9201 2.08001 22.7601 2.62002C23.1601 2.88002 23.2601 3.21002 22.9901 3.64002C22.4701 4.45002 21.9901 5.30002 21.4201 6.08002C21.2601 6.30001 20.8301 6.34002 20.5301 6.46002C20.5001 6.13002 20.3701 5.76002 20.4701 5.48002C20.6401 5.01002 20.9701 4.61002 21.1401 3.98002C20.4601 4.16002 19.7501 4.29002 19.0901 4.53002C11.0301 7.42002 5.97012 13 3.99012 21.33C3.89012 21.77 3.80012 22.25 3.23012 22.15C2.59012 22.03 2.72012 21.53 2.84012 21.06C5.12012 11.63 10.9801 5.65002 20.2501 2.94002C20.3501 2.91002 20.4601 2.88002 20.7501 2.79002Z" fill="#FEEBA6"/>
<path d="M49.16 20.57C49.49 20.07 49.69 19.64 50.01 19.33C50.2 19.15 50.58 19.15 50.87 19.07C50.9 19.37 51.07 19.74 50.95 19.96C50.49 20.81 49.94 21.61 49.42 22.43C49.17 22.82 48.85 22.97 48.41 22.68C47.57 22.14 46.7 21.65 45.9 21.07C45.69 20.92 45.67 20.52 45.56 20.23C45.89 20.19 46.26 20.04 46.54 20.13C46.95 20.26 47.3 20.58 47.68 20.81C47.75 20.77 47.81 20.73 47.88 20.69C47.65 19.89 47.48 19.07 47.17 18.3C44.16 10.68 38.74 5.82002 30.73 3.93002C30.56 3.89002 30.35 3.88002 30.25 3.78002C30.06 3.58002 29.92 3.33002 29.77 3.10002C30.02 2.96002 30.29 2.67002 30.5 2.71002C31.61 2.94002 32.74 3.16002 33.8 3.55002C41.48 6.44002 46.53 11.81 48.86 19.71C48.93 19.95 49.03 20.19 49.17 20.59L49.16 20.57Z" fill="#FEEBA6"/>
<path d="M31.2499 49.15C31.7699 49.46 32.2399 49.67 32.6299 49.99C32.8199 50.15 32.8499 50.5 32.9499 50.76C32.6599 50.84 32.2999 51.07 32.0899 50.97C31.1599 50.54 30.2499 50.05 29.4099 49.49C29.1899 49.34 29.0499 48.76 29.1599 48.51C29.5299 47.65 29.9899 46.83 30.5099 46.04C30.6599 45.81 31.0799 45.76 31.3799 45.63C31.4299 45.95 31.5699 46.29 31.4999 46.58C31.4199 46.95 31.1699 47.29 30.8599 47.88C31.8399 47.6 32.6399 47.45 33.3799 47.16C41.2199 44.17 46.1699 38.63 48.0699 30.42C48.1699 29.98 48.3199 29.49 48.8599 29.68C49.0799 29.76 49.2999 30.34 49.2399 30.62C47.0099 39.98 41.2799 46.05 32.0499 48.8C31.8899 48.85 31.7199 48.9 31.5599 48.96C31.4799 48.99 31.4199 49.05 31.2699 49.15H31.2499Z" fill="#FEEBA6"/>
<path d="M2.84001 31.56C2.55001 32 2.33001 32.45 1.99001 32.78C1.81001 32.96 1.42001 32.93 1.12001 32.99C1.09001 32.71 0.940006 32.37 1.05001 32.17C1.52001 31.32 2.06001 30.52 2.57001 29.7C2.85001 29.25 3.23001 29.17 3.66001 29.44C4.51001 29.96 5.37001 30.47 6.17001 31.06C6.36001 31.2 6.35001 31.62 6.43001 31.91C6.13001 31.94 5.80001 32.08 5.54001 31.99C5.13001 31.85 4.77001 31.56 4.39001 31.34C4.30001 31.4 4.21001 31.45 4.12001 31.51C4.73001 33.02 5.23001 34.59 5.98001 36.03C9.20001 42.21 14.19 46.17 20.98 47.83C21.2 47.88 21.46 47.89 21.63 48.02C21.89 48.21 22.08 48.49 22.3 48.72C22 48.86 21.67 49.15 21.4 49.1C17.86 48.48 14.67 47.01 11.83 44.84C7.55001 41.58 4.65001 37.35 3.20001 32.15C3.16001 32.01 3.11001 31.88 3.05001 31.75C3.03001 31.7 2.97001 31.68 2.84001 31.56Z" fill="#FEEBA6"/>
</g>
<defs>
<clipPath id="clip0_357_3980">
<rect width="52" height="52" fill="white"/>
</clipPath>
</defs>
</svg>
