<svg width="40" height="41" viewBox="0 0 40 41" fill="none" xmlns="http://www.w3.org/2000/svg">
<g id="Social Media / Pinterest">
<path id="Vector" d="M19.0217 10.6093C15.7751 10.9806 12.54 13.6719 12.4065 17.5163C12.3225 19.8635 12.973 21.6245 15.1533 22.1189C16.0994 20.4088 14.8481 20.0316 14.6535 18.7945C13.8543 13.7247 20.3608 10.2673 23.7657 13.8068C26.1215 16.2576 24.5706 23.7978 20.7709 23.0141C17.1314 22.2655 22.5525 16.2635 19.6474 15.0849C17.2859 14.1273 16.0307 18.0146 17.1504 19.9456C16.4943 23.2662 15.0808 26.3952 15.653 30.5601C17.5091 29.1803 18.1347 26.5379 18.6478 23.7822C19.5806 24.3626 20.0785 24.9666 21.2688 25.0604C25.6579 25.4083 28.1091 20.571 27.5101 16.1091C26.9779 12.1533 23.1248 10.1402 19.0217 10.6093Z" fill="white"/>
</g>
</svg>
