<svg width="134" height="22" viewBox="0 0 134 22" fill="none" xmlns="http://www.w3.org/2000/svg">
<path d="M2.15627 3.15851C2.15627 2.53744 2.04663 2.05586 1.82735 1.71045C1.60807 1.36836 1.14027 1.1558 0.420291 1.07609C0.281412 1.05948 0.175426 0.996377 0.105986 0.883454C0.036547 0.773853 0 0.654287 0 0.524758C0 0.411836 0.036547 0.308877 0.105986 0.21256C0.175426 0.116244 0.281412 0.0763889 0.420291 0.0929952C1.27915 0.156099 2.06125 0.199275 2.76295 0.225845C3.46466 0.249094 4.16636 0.252415 4.86806 0.23913C6.27147 0.222524 7.52503 0.21256 8.63241 0.202597C9.73612 0.195954 10.8216 0.18599 11.8814 0.179348C12.9413 0.172705 14.045 0.15942 15.1853 0.142814C16.3256 0.126208 17.623 0.109601 19.0812 0.0963164C19.5198 0.0963164 19.7573 0.272343 19.7902 0.621075C19.8085 1.00302 19.8304 1.41818 19.856 1.86322C19.8816 2.30827 19.9145 2.77325 19.9474 3.25151C19.9839 3.72977 20.0168 4.20471 20.0533 4.67301C20.0899 5.14463 20.1337 5.58635 20.1849 6.00151C20.2032 6.12772 20.1593 6.21739 20.0533 6.26389C19.9474 6.31039 19.8268 6.33696 19.6842 6.33696C19.5417 6.33696 19.4247 6.31703 19.3297 6.27717C19.2347 6.23732 19.1689 6.16093 19.1324 6.05133C18.9569 5.0151 18.5915 4.18146 18.0396 3.55374C17.4877 2.9227 16.8189 2.4378 16.0405 2.09571C15.2584 1.75362 14.3959 1.52446 13.4493 1.41486C12.5027 1.30525 11.5269 1.24879 10.5292 1.24879C9.6009 1.24879 8.89189 1.39161 8.40947 1.68056C7.92705 1.96618 7.68584 2.46105 7.68584 3.16184V9.69142C7.68584 10.0435 7.77355 10.2693 7.94898 10.3723C8.1244 10.4752 8.41312 10.5284 8.81879 10.5284H11.6073C12.2908 10.5284 12.8536 10.4819 13.2921 10.3856C13.7307 10.2893 14.0779 10.1398 14.3301 9.93055C14.5859 9.72464 14.7723 9.44565 14.8966 9.0936C15.0208 8.74487 15.1158 8.31975 15.1853 7.82488C15.2218 7.60235 15.4046 7.48943 15.7371 7.48943C15.876 7.48943 16.0003 7.52597 16.1063 7.59571C16.2123 7.66546 16.2561 7.75845 16.2378 7.87138C16.1501 8.42935 16.099 8.96075 16.0807 9.46226C16.0624 9.96377 16.0551 10.4719 16.0551 10.9801C16.0551 11.4882 16.0624 11.9964 16.0807 12.4979C16.099 12.9994 16.1501 13.5308 16.2378 14.0888C16.2561 14.215 16.2123 14.3113 16.1063 14.3744C16.0003 14.4375 15.8797 14.4707 15.7371 14.4707C15.4046 14.4707 15.2182 14.3611 15.1853 14.1353C15.1158 13.6404 15.0172 13.2219 14.8966 12.8798C14.7723 12.5377 14.5859 12.2621 14.3301 12.0562C14.0743 11.8502 13.7307 11.6975 13.2921 11.6011C12.8536 11.5048 12.2908 11.4583 11.6073 11.4583H8.81879C8.41678 11.4583 8.1244 11.5115 7.94898 11.6144C7.77355 11.7174 7.68584 11.9466 7.68584 12.2953V18.6787C7.68584 19.3795 7.94167 19.8744 8.44967 20.16C8.95767 20.4457 9.68496 20.5918 10.6352 20.5918C11.8083 20.5918 12.9011 20.5353 13.9098 20.4257C14.9185 20.3161 15.8175 20.0604 16.607 19.6618C17.3964 19.2965 18.0579 18.7983 18.5951 18.1673C19.1287 17.5362 19.4869 16.7458 19.6623 15.7892C19.6988 15.6796 19.7646 15.6033 19.8596 15.5634C19.9547 15.5235 20.0753 15.5036 20.2142 15.5036C20.353 15.5036 20.4773 15.5269 20.5833 15.5767C20.6893 15.6232 20.7331 15.7129 20.7148 15.8391C20.6637 16.2542 20.6198 16.696 20.5833 17.1676C20.5467 17.6392 20.5138 18.1108 20.4773 18.5891C20.4407 19.0673 20.4115 19.529 20.3859 19.9774C20.3603 20.4224 20.3384 20.8376 20.3201 21.2195C20.2836 21.5882 20.0497 21.7708 19.6111 21.7708C18.1529 21.7542 16.8482 21.7376 15.6896 21.7243C14.5311 21.7111 13.4018 21.6911 12.2944 21.6778C11.1907 21.6612 10.0541 21.6513 8.88823 21.6413C7.72238 21.6347 6.39207 21.6214 4.90095 21.6048C4.18098 21.5882 3.47562 21.6014 2.78123 21.6413C2.08683 21.6812 1.30473 21.7243 0.4276 21.7742C0.288721 21.7908 0.182735 21.7509 0.113296 21.6546C0.0438564 21.5583 0.0073094 21.4487 0.0073094 21.3191C0.0073094 21.1896 0.0438564 21.0734 0.113296 20.9604C0.182735 20.8508 0.288721 20.7844 0.4276 20.7678C1.14758 20.6881 1.61538 20.4755 1.83466 20.1335C2.05394 19.7914 2.16358 19.3098 2.16358 18.6854V3.15851H2.15627ZM23.0502 6.31703C23.0502 5.32729 23.2914 4.44716 23.7738 3.67331C24.2563 2.89946 24.9543 2.23853 25.8643 1.6872C26.778 1.13587 27.889 0.717391 29.2047 0.431763C30.5204 0.146135 32.0042 0 33.6525 0C34.917 0 36.0646 0.122886 37.0989 0.371981C38.1332 0.621075 39.0212 0.966485 39.7558 1.41153C40.4941 1.85658 41.0569 2.39463 41.4516 3.02566C41.8463 3.6567 42.0437 4.36081 42.0437 5.1413C42.0437 6.91153 41.0971 7.79499 39.2003 7.79499C38.9737 7.79499 38.7289 7.77174 38.4767 7.72192C38.2209 7.67542 37.9906 7.59571 37.7786 7.48279C37.5667 7.37319 37.3986 7.22705 37.267 7.05103C37.1354 6.875 37.0696 6.65912 37.0696 6.4067C37.0696 6.12107 37.1062 5.84541 37.1756 5.58303C37.2451 5.32065 37.3218 5.06159 37.3986 4.80586C37.479 4.55012 37.5484 4.30435 37.6105 4.06522C37.6727 3.82609 37.7019 3.60356 37.7019 3.39432C37.7019 2.64372 37.3364 2.04589 36.6091 1.60085C35.8819 1.1558 34.9134 0.929952 33.7 0.929952C32.9289 0.929952 32.2052 1.0163 31.5291 1.19233C30.853 1.36836 30.2646 1.61081 29.7675 1.92301C29.2668 2.23521 28.8721 2.5939 28.5834 2.99909C28.2947 3.40429 28.1485 3.84934 28.1485 4.3276C28.1485 4.90217 28.3495 5.41033 28.7552 5.8587C29.1572 6.30374 29.6908 6.7189 30.3486 7.10085C31.0065 7.48279 31.752 7.84149 32.5853 8.17693C33.4186 8.51238 34.2738 8.85779 35.1509 9.21649C36.028 9.57518 36.8832 9.95712 37.7165 10.3656C38.5498 10.7708 39.2953 11.2358 39.9532 11.7539C40.611 12.272 41.141 12.8566 41.5466 13.5109C41.9487 14.1652 42.1533 14.9124 42.1533 15.7594C42.1533 16.7325 41.9085 17.5993 41.4151 18.3665C40.9253 19.1304 40.2236 19.7847 39.31 20.3261C38.3963 20.8674 37.2853 21.2826 35.9696 21.5682C34.6539 21.8539 33.1701 22 31.5218 22C30.2573 22 29.1097 21.8771 28.0754 21.628C27.0411 21.3822 26.153 21.0335 25.4184 20.5885C24.6802 20.1434 24.1174 19.6054 23.7227 18.9743C23.328 18.3433 23.1306 17.6458 23.1306 16.8819C23.1306 15.1117 24.0881 14.2283 25.9995 14.2283C26.2261 14.2283 26.4637 14.2515 26.7086 14.3013C26.9534 14.3478 27.1837 14.4275 27.392 14.5405C27.604 14.6534 27.7721 14.7962 27.9036 14.9722C28.0352 15.1482 28.101 15.3641 28.101 15.6165C28.101 15.9022 28.0718 16.1778 28.0096 16.4402C27.9475 16.7026 27.8781 16.9617 27.7977 17.2174C27.7173 17.4731 27.6442 17.7156 27.5747 17.9481C27.5053 18.1806 27.4687 18.4064 27.4687 18.6289C27.4687 19.3795 27.794 19.9674 28.4409 20.3992C29.0914 20.8309 29.9759 21.0435 31.0979 21.0435C31.869 21.0435 32.6146 20.9472 33.3345 20.7578C34.0545 20.5652 34.6868 20.3062 35.2277 19.9807C35.7722 19.6552 36.2035 19.2799 36.5287 18.8581C36.854 18.4363 37.0148 17.9946 37.0148 17.5296C37.0148 16.955 36.8138 16.4535 36.4081 16.0217C36.0025 15.59 35.4798 15.1914 34.8293 14.8261C34.1788 14.4607 33.4332 14.112 32.5926 13.7865C31.752 13.461 30.8968 13.1256 30.027 12.7835C29.1572 12.4414 28.302 12.0761 27.4614 11.6842C26.6208 11.2923 25.8753 10.8439 25.2247 10.3324C24.5742 9.82095 24.0479 9.23973 23.6459 8.58545C23.2439 7.93116 23.0392 7.17391 23.0392 6.31371L23.0502 6.31703ZM52.1782 3.15851C52.1782 2.58394 52.0429 2.14553 51.7688 1.8433C51.4947 1.54106 51.0196 1.38829 50.3362 1.38829C49.6528 1.38829 49.0607 1.50785 48.5089 1.74698C47.957 1.98611 47.4344 2.33816 46.9446 2.79982C46.4184 3.27808 46.009 3.82277 45.7203 4.4372C45.4316 5.05163 45.216 5.71588 45.0771 6.43327C45.0588 6.52959 44.9967 6.59934 44.8944 6.64915C44.7884 6.69565 44.6678 6.72222 44.5252 6.72222C44.3827 6.72222 44.2621 6.69565 44.1561 6.63919C44.0501 6.58273 44.0063 6.4997 44.0245 6.38677C44.0611 5.97162 44.0976 5.50996 44.1415 4.99849C44.1853 4.48702 44.2219 3.97554 44.2475 3.45743C44.2731 2.93931 44.2986 2.4378 44.3279 1.94958C44.3535 1.46467 44.3754 1.02959 44.3937 0.647645C44.4302 0.282307 44.6641 0.0963164 45.1027 0.0963164C46.7692 0.129529 48.4102 0.15942 50.0219 0.192633C51.6373 0.225845 53.2673 0.23913 54.9155 0.23913C56.5638 0.23913 58.2267 0.222524 59.8494 0.192633C61.4721 0.15942 63.1167 0.129529 64.7832 0.0963164C65.2218 0.0963164 65.4594 0.278986 65.4922 0.647645C65.5105 1.02959 65.5325 1.46467 65.558 1.94958C65.5836 2.43448 65.6165 2.93931 65.6494 3.45743C65.686 3.97554 65.7188 4.49034 65.7554 4.99849C65.7883 5.50996 65.8358 5.97162 65.887 6.38677C65.9052 6.4997 65.8577 6.58273 65.7408 6.63919C65.6275 6.69565 65.4996 6.72222 65.3607 6.72222C65.2218 6.72222 65.1012 6.69897 65.0062 6.64915C64.9111 6.60266 64.8527 6.52959 64.8344 6.43327C64.7101 5.8288 64.5091 5.22101 64.2277 4.61655C63.9463 4.01208 63.5845 3.46739 63.135 2.98913C62.6891 2.51087 62.1665 2.1256 61.5708 1.83001C60.975 1.53442 60.2916 1.38829 59.5168 1.38829C58.848 1.38829 58.3802 1.54106 58.1098 1.8433C57.8357 2.14553 57.7004 2.58394 57.7004 3.15851V18.6787C57.7004 19.2998 57.8137 19.7814 58.044 20.1268C58.2706 20.4689 58.7457 20.6815 59.4656 20.7612C59.6045 20.7778 59.7069 20.8409 59.769 20.9538C59.8311 21.0667 59.8604 21.1863 59.8604 21.3125C59.8604 21.4387 59.8311 21.5516 59.769 21.6479C59.7069 21.7443 59.6082 21.7841 59.4656 21.7675C58.5702 21.7044 57.7699 21.6646 57.0572 21.6479C56.3482 21.6313 55.6319 21.6247 54.9119 21.6247C54.1919 21.6247 53.4866 21.6313 52.7922 21.6479C52.0978 21.6646 51.3047 21.7044 50.4093 21.7675C50.285 21.7841 50.19 21.7443 50.1206 21.6479C50.0511 21.5516 50.0146 21.442 50.0146 21.3125C50.0146 21.183 50.0511 21.0667 50.1206 20.9538C50.19 20.8442 50.2887 20.7778 50.4093 20.7612C51.1293 20.6815 51.6007 20.4689 51.831 20.1268C52.0612 19.7847 52.1745 19.3031 52.1745 18.6787V3.15851H52.1782ZM75.5975 0.435084C75.6852 0.179348 75.8424 0.0697464 76.0726 0.0996377C76.354 0.13285 76.6391 0.156099 76.9278 0.172705C77.2165 0.189312 77.5016 0.195954 77.783 0.195954C78.2033 0.195954 78.6236 0.182669 79.0475 0.15942C79.4678 0.136171 79.8808 0.116244 80.2828 0.0996377C80.5642 0.0996377 80.7397 0.202597 80.8091 0.411836L87.7311 18.609C87.8371 18.9112 87.9431 19.1869 88.0454 19.4327C88.1477 19.6784 88.272 19.8976 88.4145 20.0903C88.5534 20.2829 88.7398 20.4324 88.9664 20.5453C89.193 20.6582 89.4854 20.728 89.8362 20.7612C89.9751 20.7778 90.0774 20.8409 90.1396 20.9538C90.2017 21.0667 90.2309 21.1863 90.2309 21.3125C90.2309 21.4387 90.2017 21.5516 90.1396 21.6479C90.0774 21.7443 89.9787 21.7841 89.8362 21.7675C88.9408 21.7044 88.0966 21.6646 87.2962 21.6479C86.4995 21.6313 85.732 21.6247 84.9937 21.6247C84.2555 21.6247 83.4332 21.6313 82.4683 21.6479C81.5035 21.6646 80.5898 21.7044 79.731 21.7675C79.5921 21.7841 79.4861 21.7443 79.4167 21.6479C79.3472 21.5516 79.3107 21.442 79.3107 21.3125C79.3107 21.183 79.3436 21.0667 79.4167 20.9538C79.4861 20.8442 79.5921 20.7778 79.731 20.7612C80.3961 20.6981 80.9114 20.5652 81.2696 20.3659C81.6278 20.1667 81.8105 19.788 81.8105 19.2301C81.8105 18.9577 81.7666 18.6489 81.6789 18.2968C81.5912 17.9481 81.4596 17.5396 81.2842 17.0779L80.1001 13.9924C80.0124 13.7699 79.8406 13.6105 79.5884 13.5142C79.3326 13.4179 79.0475 13.3714 78.7332 13.3714H72.7066C72.3375 13.3714 72.0195 13.4079 71.7454 13.4777C71.4713 13.5507 71.2923 13.6969 71.2046 13.9194L69.8377 17.1709C69.3991 18.1739 69.1798 18.9312 69.1798 19.4426C69.1798 19.9043 69.3516 20.2298 69.6915 20.4124C70.035 20.5951 70.5467 20.7114 71.2301 20.7578C71.369 20.7745 71.4713 20.8376 71.5335 20.9505C71.5956 21.0634 71.6248 21.183 71.6248 21.3092C71.6248 21.4354 71.5956 21.5483 71.5335 21.6446C71.4713 21.7409 71.3727 21.7808 71.2301 21.7642C70.1593 21.6679 69.1945 21.6214 68.3356 21.6214C67.8459 21.6214 67.4 21.638 67.0053 21.6679C66.6106 21.7011 66.2013 21.731 65.781 21.7642C65.6421 21.7808 65.5398 21.7409 65.4776 21.6446C65.4155 21.5483 65.3863 21.4387 65.3863 21.3092C65.3863 21.1796 65.4155 21.0634 65.4776 20.9505C65.5398 20.8409 65.6384 20.7745 65.781 20.7578C66.1135 20.728 66.395 20.635 66.6216 20.4822C66.8481 20.3294 67.0418 20.1501 67.199 19.9441C67.3561 19.7382 67.4877 19.5124 67.5937 19.2732C67.6997 19.0341 67.7947 18.8116 67.8824 18.6024C69.1981 15.5269 70.4846 12.4979 71.7381 9.5154C72.9917 6.53623 74.2782 3.50392 75.5938 0.428442L75.5975 0.435084ZM75.8351 2.91938L72.1 11.7672C72.0122 11.9432 72.0415 12.0993 72.1913 12.2322C72.3412 12.3684 72.5385 12.4348 72.7834 12.4348H78.492C78.7369 12.4348 78.9489 12.3783 79.1243 12.2687C79.2997 12.1591 79.3509 12.013 79.2814 11.837L75.8351 2.91606V2.91938ZM97.9131 3.15851C97.9131 2.58394 97.7779 2.14553 97.5038 1.8433C97.2297 1.54106 96.7546 1.38829 96.0711 1.38829C95.3877 1.38829 94.7956 1.50785 94.2438 1.74698C93.6919 1.98611 93.1693 2.33816 92.6796 2.79982C92.1533 3.27808 91.744 3.82277 91.4553 4.4372C91.1665 5.05163 90.9509 5.71588 90.812 6.43327C90.7937 6.52959 90.7316 6.59934 90.6293 6.64915C90.5233 6.69565 90.4027 6.72222 90.2602 6.72222C90.1176 6.72222 89.997 6.69565 89.891 6.63919C89.785 6.58273 89.7412 6.4997 89.7595 6.38677C89.796 5.97162 89.8326 5.50996 89.8764 4.99849C89.9203 4.48702 89.9568 3.97554 89.9824 3.45743C90.008 2.93931 90.0336 2.4378 90.0628 1.94958C90.0884 1.46467 90.1103 1.02959 90.1286 0.647645C90.1651 0.282307 90.399 0.0963164 90.8376 0.0963164C92.5042 0.129529 94.1451 0.15942 95.7568 0.192633C97.3722 0.225845 99.0022 0.23913 100.65 0.23913C102.299 0.23913 103.962 0.222524 105.584 0.192633C107.207 0.15942 108.852 0.129529 110.518 0.0963164C110.957 0.0963164 111.194 0.278986 111.227 0.647645C111.245 1.02959 111.267 1.46467 111.293 1.94958C111.319 2.43448 111.351 2.93931 111.384 3.45743C111.421 3.97554 111.454 4.49034 111.49 4.99849C111.523 5.50996 111.571 5.97162 111.622 6.38677C111.64 6.4997 111.593 6.58273 111.476 6.63919C111.362 6.69565 111.234 6.72222 111.096 6.72222C110.957 6.72222 110.836 6.69897 110.741 6.64915C110.646 6.60266 110.588 6.52959 110.569 6.43327C110.445 5.8288 110.244 5.22101 109.963 4.61655C109.681 4.01208 109.319 3.46739 108.87 2.98913C108.424 2.51087 107.901 2.1256 107.306 1.83001C106.71 1.53442 106.027 1.38829 105.252 1.38829C104.583 1.38829 104.115 1.54106 103.845 1.8433C103.571 2.14553 103.435 2.58394 103.435 3.15851V18.6787C103.435 19.2998 103.549 19.7814 103.779 20.1268C104.005 20.4689 104.481 20.6815 105.201 20.7612C105.339 20.7778 105.442 20.8409 105.504 20.9538C105.566 21.0667 105.595 21.1863 105.595 21.3125C105.595 21.4387 105.566 21.5516 105.504 21.6479C105.442 21.7443 105.343 21.7841 105.201 21.7675C104.305 21.7044 103.505 21.6646 102.792 21.6479C102.083 21.6313 101.367 21.6247 100.647 21.6247C99.9268 21.6247 99.2215 21.6313 98.5271 21.6479C97.8327 21.6646 97.0396 21.7044 96.1442 21.7675C96.02 21.7841 95.9249 21.7443 95.8555 21.6479C95.7861 21.5516 95.7495 21.442 95.7495 21.3125C95.7495 21.183 95.7861 21.0667 95.8555 20.9538C95.9249 20.8442 96.0236 20.7778 96.1442 20.7612C96.8642 20.6815 97.3357 20.4689 97.5659 20.1268C97.7962 19.7847 97.9094 19.3031 97.9094 18.6787V3.15851H97.9131ZM115.437 3.15851C115.437 2.53744 115.328 2.05586 115.108 1.71045C114.889 1.36836 114.421 1.1558 113.701 1.07609C113.563 1.05948 113.457 0.996377 113.387 0.883454C113.318 0.773853 113.281 0.654287 113.281 0.524758C113.281 0.411836 113.318 0.308877 113.387 0.21256C113.457 0.116244 113.563 0.0763889 113.701 0.0929952C114.56 0.156099 115.342 0.199275 116.044 0.225845C116.746 0.249094 117.447 0.252415 118.149 0.23913C119.553 0.222524 120.806 0.21256 121.914 0.202597C123.017 0.195954 124.103 0.18599 125.163 0.179348C126.222 0.172705 127.326 0.15942 128.466 0.142814C129.607 0.126208 130.904 0.109601 132.362 0.0963164C132.801 0.0963164 133.038 0.272343 133.071 0.621075C133.09 1.00302 133.112 1.41818 133.137 1.86322C133.163 2.30827 133.196 2.77325 133.228 3.25151C133.265 3.72977 133.298 4.20471 133.334 4.67301C133.371 5.14463 133.415 5.58635 133.466 6.00151C133.484 6.12772 133.44 6.21739 133.334 6.26389C133.228 6.31039 133.108 6.33696 132.965 6.33696C132.823 6.33696 132.706 6.31703 132.611 6.27717C132.516 6.23732 132.45 6.16093 132.413 6.05133C132.238 5.0151 131.873 4.18146 131.321 3.55374C130.769 2.9227 130.1 2.4378 129.322 2.09571C128.54 1.75362 127.677 1.52446 126.73 1.41486C125.784 1.30525 124.808 1.24879 123.81 1.24879C122.882 1.24879 122.173 1.39161 121.691 1.68056C121.208 1.96618 120.967 2.46105 120.967 3.16184V9.69142C120.967 10.0435 121.055 10.2693 121.23 10.3723C121.406 10.4752 121.694 10.5284 122.1 10.5284H124.888C125.572 10.5284 126.135 10.4819 126.573 10.3856C127.012 10.2893 127.359 10.1398 127.611 9.93055C127.867 9.72464 128.053 9.44565 128.178 9.0936C128.302 8.74487 128.397 8.31975 128.466 7.82488C128.503 7.60235 128.686 7.48943 129.018 7.48943C129.157 7.48943 129.281 7.52597 129.387 7.59571C129.493 7.66546 129.537 7.75845 129.519 7.87138C129.431 8.42935 129.38 8.96075 129.362 9.46226C129.344 9.96377 129.336 10.4719 129.336 10.9801C129.336 11.4882 129.344 11.9964 129.362 12.4979C129.38 12.9994 129.431 13.5308 129.519 14.0888C129.537 14.215 129.493 14.3113 129.387 14.3744C129.281 14.4375 129.161 14.4707 129.018 14.4707C128.686 14.4707 128.499 14.3611 128.466 14.1353C128.397 13.6404 128.298 13.2219 128.178 12.8798C128.053 12.5377 127.867 12.2621 127.611 12.0562C127.355 11.8502 127.012 11.6975 126.573 11.6011C126.135 11.5048 125.572 11.4583 124.888 11.4583H122.1C121.698 11.4583 121.406 11.5115 121.23 11.6144C121.055 11.7174 120.967 11.9466 120.967 12.2953V18.6787C120.967 19.3795 121.223 19.8744 121.731 20.16C122.239 20.4457 122.966 20.5918 123.916 20.5918C125.089 20.5918 126.182 20.5353 127.191 20.4257C128.2 20.3161 129.099 20.0604 129.888 19.6618C130.678 19.2965 131.339 18.7983 131.876 18.1673C132.41 17.5362 132.768 16.7458 132.943 15.7892C132.98 15.6796 133.046 15.6033 133.141 15.5634C133.236 15.5235 133.356 15.5036 133.495 15.5036C133.634 15.5036 133.758 15.5269 133.864 15.5767C133.97 15.6232 134.014 15.7129 133.996 15.8391C133.945 16.2542 133.901 16.696 133.864 17.1676C133.828 17.6392 133.795 18.1108 133.758 18.5891C133.722 19.0673 133.693 19.529 133.667 19.9774C133.641 20.4224 133.62 20.8376 133.601 21.2195C133.565 21.5882 133.331 21.7708 132.892 21.7708C131.434 21.7542 130.129 21.7376 128.971 21.7243C127.812 21.7111 126.683 21.6911 125.576 21.6778C124.472 21.6612 123.335 21.6513 122.169 21.6413C121.004 21.6347 119.673 21.6214 118.182 21.6048C117.462 21.5882 116.757 21.6014 116.062 21.6413C115.368 21.6812 114.586 21.7243 113.709 21.7742C113.57 21.7908 113.464 21.7509 113.394 21.6546C113.325 21.5583 113.288 21.4487 113.288 21.3191C113.288 21.1896 113.325 21.0734 113.394 20.9604C113.464 20.8508 113.57 20.7844 113.709 20.7678C114.429 20.6881 114.897 20.4755 115.116 20.1335C115.335 19.7914 115.445 19.3098 115.445 18.6854V3.15851H115.437Z" fill="url(#paint0_linear_357_4161)"/>
<defs>
<linearGradient id="paint0_linear_357_4161" x1="0" y1="11.0033" x2="133.992" y2="11.0033" gradientUnits="userSpaceOnUse">
<stop stop-color="#FAD483"/>
<stop offset="0.23" stop-color="#F0CC80"/>
<stop offset="0.41" stop-color="#FDEBA7"/>
<stop offset="0.59" stop-color="#FEEBA6"/>
<stop offset="0.77" stop-color="#FCF8CB"/>
<stop offset="1" stop-color="#FDECAB"/>
</linearGradient>
</defs>
</svg>
