<svg width="97" height="22" viewBox="0 0 97 22" fill="none" xmlns="http://www.w3.org/2000/svg">
<path d="M2.26123 3.21273C2.26123 2.58626 2.14262 2.0938 1.90158 1.74204C1.66436 1.38693 1.16696 1.17923 0.41322 1.11558C0.267828 1.09883 0.160697 1.03518 0.0956528 0.921273C0.0306089 0.80737 0 0.686767 0 0.559464C0 0.432161 0.034435 0.318258 0.0994789 0.221106C0.164523 0.123953 0.267828 0.0837521 0.417046 0.100502C1.35444 0.147404 2.18854 0.187605 2.92315 0.221106C3.65776 0.254606 4.40003 0.268007 5.15377 0.268007C6.43935 0.268007 7.70962 0.224456 8.96841 0.134003C10.2272 0.0469012 11.4898 0 12.7563 0C14.0227 0 15.1246 0.0837521 16.173 0.254606C17.2213 0.422111 18.1281 0.716918 18.901 1.13568C19.6739 1.55444 20.2822 2.11725 20.7337 2.82412C21.1852 3.53099 21.4071 4.43216 21.4071 5.52429C21.4071 6.39196 21.2694 7.16583 20.9939 7.8392C20.7184 8.51256 20.3243 9.10888 19.8078 9.62479C19.2951 10.1407 18.6906 10.5729 18.0019 10.928C17.3132 11.2831 16.5556 11.5712 15.7291 11.7956C16.502 12.0838 17.1372 12.4556 17.6422 12.9045C18.1473 13.3534 18.5643 13.8425 18.8972 14.3652C19.2262 14.8878 19.494 15.4338 19.6968 16.0067C19.8996 16.5762 20.0833 17.129 20.2478 17.6583C20.3932 18.1072 20.5386 18.536 20.6763 18.938C20.8141 19.34 20.9824 19.6884 21.1852 19.9866C21.388 20.2848 21.6252 20.5226 21.9007 20.6968C22.1761 20.8744 22.5243 20.9615 22.949 20.9615C23.0944 20.9615 23.2054 21.0151 23.2781 21.1189C23.3508 21.2228 23.389 21.34 23.389 21.4673C23.389 21.5946 23.3508 21.7119 23.2781 21.8157C23.2054 21.9196 23.0944 21.9732 22.949 21.9732C22.3981 21.9732 21.8892 21.9765 21.4186 21.9866C20.9518 21.9933 20.5118 22 20.11 22C19.0808 22 18.2353 21.9129 17.5772 21.7353C16.9152 21.5578 16.3566 21.2529 15.8975 20.8174C15.4384 20.3819 15.0404 19.7923 14.6999 19.0452C14.3594 18.2982 13.9959 17.3534 13.6133 16.2111C13.5024 15.9229 13.3837 15.5879 13.2537 15.2094C13.1236 14.8308 12.9782 14.4623 12.8137 14.1005C12.6491 13.7387 12.4616 13.4003 12.2474 13.0888C12.037 12.7739 11.8036 12.5461 11.5434 12.402C10.4032 12.5293 9.24006 12.5561 8.04632 12.4757V18.8677C8.04632 19.5913 8.2338 20.1005 8.61258 20.3987C8.98754 20.6968 9.68389 20.8844 10.694 20.9648C10.8394 20.9816 10.9503 21.0452 11.023 21.1591C11.0957 21.273 11.134 21.3936 11.134 21.5209C11.134 21.6482 11.0957 21.7621 11.023 21.8593C10.9503 21.9564 10.8394 21.9966 10.694 21.9799C9.84841 21.9162 8.99902 21.876 8.14579 21.8593C7.29257 21.8425 6.4317 21.8358 5.57082 21.8358C4.70994 21.8358 3.82611 21.8425 2.98054 21.8593C2.13497 21.876 1.28175 21.9162 0.417046 21.9799C0.271654 21.9966 0.164523 21.9564 0.0994789 21.8593C0.034435 21.7621 0.00382611 21.6516 0.00382611 21.5209C0.00382611 21.3903 0.034435 21.273 0.0994789 21.1591C0.164523 21.0486 0.267828 20.9816 0.417046 20.9648C1.17079 20.8844 1.66436 20.67 1.9054 20.325C2.14262 19.9799 2.26506 19.4941 2.26506 18.8643V3.21273H2.26123ZM8.04632 3.18593V11.8459C9.31276 11.8291 10.4262 11.6683 11.3789 11.3635C12.3354 11.0586 13.1389 10.6265 13.7893 10.0737C14.4397 9.51759 14.9295 8.85092 15.2509 8.07035C15.5723 7.28978 15.7253 6.41876 15.7062 5.45394C15.7062 4.82747 15.6182 4.23451 15.446 3.68174C15.27 3.12563 15.006 2.64322 14.6464 2.23451C14.2867 1.8258 13.8237 1.49749 13.2537 1.25628C12.6836 1.01508 11.9872 0.894472 11.1608 0.894472C10.2616 0.894472 9.51554 1.05193 8.93015 1.36348C8.34475 1.67504 8.05014 2.28476 8.05014 3.18593H8.04632ZM27.3605 3.21273C27.3605 2.58626 27.2457 2.1005 27.0162 1.75209C26.7866 1.40704 26.2969 1.19263 25.5431 1.11223C25.3977 1.09548 25.2868 1.03183 25.2141 0.917923C25.1414 0.80402 25.1031 0.683417 25.1031 0.556114C25.1031 0.442211 25.1414 0.338358 25.2141 0.241206C25.2868 0.144054 25.3977 0.103853 25.5431 0.120603C26.4423 0.184255 27.2611 0.227806 27.9957 0.254606C28.7303 0.278057 29.4649 0.281407 30.1995 0.268007C31.6687 0.251256 32.9811 0.241206 34.1404 0.231156C35.2959 0.224456 36.4322 0.214405 37.5418 0.207705C38.6514 0.201005 39.8069 0.187605 41.0006 0.170854C42.1944 0.154104 43.5526 0.137353 45.0793 0.123953C45.5384 0.123953 45.7871 0.301508 45.8215 0.653266C45.8407 1.03853 45.8636 1.45729 45.8904 1.9062C45.9172 2.35511 45.9516 2.82412 45.986 3.30653C46.0243 3.78894 46.0587 4.26801 46.097 4.74037C46.1353 5.21608 46.1812 5.66164 46.2347 6.0804C46.2539 6.2077 46.208 6.29816 46.097 6.34506C45.986 6.39196 45.8598 6.41876 45.7106 6.41876C45.5614 6.41876 45.4389 6.39866 45.3394 6.35846C45.24 6.31826 45.1711 6.24121 45.1328 6.13065C44.9492 5.08543 44.5666 4.24456 43.9888 3.61139C43.4111 2.97487 42.7109 2.48576 41.8959 2.1407C41.0771 1.79564 40.1742 1.56449 39.1832 1.45394C38.1923 1.34003 37.1707 1.28643 36.1262 1.28643C35.1543 1.28643 34.4121 1.43049 33.907 1.72194C33.402 2.01005 33.1494 2.50921 33.1494 3.21608V9.80234C33.1494 10.1575 33.2413 10.3853 33.4249 10.4891C33.6086 10.593 33.9108 10.6466 34.3355 10.6466H37.2549C37.9703 10.6466 38.5596 10.5997 39.0187 10.5025C39.4778 10.4054 39.8413 10.2546 40.1053 10.0436C40.3731 9.83584 40.5683 9.55444 40.6984 9.19933C40.8284 8.84422 40.9279 8.41876 41.0006 7.9196C41.0389 7.69514 41.2302 7.58124 41.5784 7.58124C41.7238 7.58124 41.8538 7.61809 41.9648 7.68844C42.0758 7.76214 42.1217 7.8526 42.1025 7.9665C42.0107 8.52931 41.9572 9.06533 41.938 9.57119C41.9189 10.0771 41.9112 10.5896 41.9112 11.1022C41.9112 11.6147 41.9189 12.1273 41.938 12.6332C41.9572 13.139 42.0107 13.675 42.1025 14.2379C42.1217 14.3652 42.0758 14.4623 41.9648 14.526C41.8538 14.5896 41.7276 14.6231 41.5784 14.6231C41.2302 14.6231 41.0351 14.5092 41.0006 14.2848C40.9279 13.7856 40.8246 13.3635 40.6984 13.0184C40.5683 12.6734 40.3731 12.3953 40.1053 12.1876C39.8375 11.9799 39.4778 11.8258 39.0187 11.7286C38.5596 11.6315 37.9703 11.5846 37.2549 11.5846H34.3355C33.9147 11.5846 33.6086 11.6382 33.4249 11.742C33.2413 11.8459 33.1494 12.0771 33.1494 12.4288V18.8677C33.1494 19.5745 33.4173 20.0737 33.9491 20.3618C34.4809 20.6499 35.2423 20.7973 36.2371 20.7973C37.4653 20.7973 38.6093 20.7404 39.6653 20.6298C40.7213 20.5193 41.6625 20.2613 42.489 19.8593C43.3154 19.4908 44.0079 18.9883 44.5704 18.3518C45.129 17.7152 45.504 16.9179 45.6876 15.9531C45.7259 15.8392 45.7947 15.7655 45.8942 15.7253C45.9937 15.6851 46.12 15.665 46.2654 15.665C46.4108 15.665 46.5408 15.6884 46.6518 15.7387C46.7627 15.7889 46.8087 15.876 46.7895 16.0033C46.736 16.4221 46.6901 16.8677 46.6518 17.3434C46.6135 17.8191 46.5791 18.2948 46.5408 18.7772C46.5026 19.2596 46.472 19.7253 46.4452 20.1776C46.4184 20.6265 46.3954 21.0452 46.3763 21.4305C46.3381 21.799 46.0932 21.9866 45.634 21.9866C44.1074 21.9698 42.7415 21.9531 41.5286 21.9397C40.3158 21.9229 39.1335 21.9062 37.9742 21.8928C36.8187 21.876 35.6288 21.866 34.4082 21.8559C33.1877 21.8492 31.795 21.8358 30.2339 21.8191C29.4802 21.8023 28.7418 21.8157 28.0148 21.8559C27.2878 21.8961 26.469 21.9397 25.5508 21.9899C25.4054 22.0067 25.2944 21.9665 25.2217 21.8693C25.149 21.7722 25.1108 21.6616 25.1108 21.531C25.1108 21.4003 25.149 21.2831 25.2217 21.1692C25.2944 21.0586 25.4054 20.9916 25.5508 20.9749C26.3045 20.8945 26.7943 20.6801 27.0238 20.335C27.2534 19.9899 27.3682 19.5042 27.3682 18.8744V3.21273H27.3605ZM59.2321 0.462312C59.3239 0.204355 59.4884 0.0938023 59.7294 0.123953C60.0241 0.157454 60.3225 0.180905 60.6248 0.197655C60.927 0.214405 61.2255 0.221106 61.5201 0.221106C61.9601 0.221106 62.4001 0.207705 62.8439 0.184255C63.2839 0.160804 63.7163 0.140704 64.1371 0.123953C64.4317 0.123953 64.6154 0.227806 64.6881 0.438861L71.9347 18.794C72.0457 19.0988 72.1567 19.3769 72.2638 19.6248C72.3747 19.8727 72.501 20.0938 72.6502 20.2881C72.7956 20.4824 72.9908 20.6332 73.228 20.7471C73.4652 20.861 73.7713 20.9313 74.1386 20.9648C74.284 20.9816 74.3911 21.0452 74.4562 21.1591C74.5212 21.273 74.5518 21.3936 74.5518 21.5209C74.5518 21.6482 74.5212 21.7621 74.4562 21.8593C74.3911 21.9564 74.2878 21.9966 74.1386 21.9799C73.2012 21.9162 72.3174 21.876 71.4794 21.8593C70.6453 21.8425 69.8419 21.8358 69.069 21.8358C68.2961 21.8358 67.4352 21.8425 66.4251 21.8593C65.415 21.876 64.4585 21.9162 63.5594 21.9799C63.414 21.9966 63.303 21.9564 63.2303 21.8593C63.1576 21.7621 63.1194 21.6516 63.1194 21.5209C63.1194 21.3903 63.1538 21.273 63.2303 21.1591C63.303 21.0486 63.414 20.9816 63.5594 20.9648C64.2557 20.9012 64.7952 20.7672 65.1702 20.5662C65.5451 20.3652 65.7364 19.9832 65.7364 19.4204C65.7364 19.1457 65.6905 18.8342 65.5987 18.4791C65.5069 18.124 65.3691 17.7152 65.1855 17.2496L63.9458 14.1374C63.854 13.9129 63.6742 13.7521 63.4102 13.6549C63.1423 13.5578 62.8439 13.5109 62.5149 13.5109H56.2056C55.8192 13.5109 55.4863 13.5477 55.1993 13.6181C54.9124 13.6918 54.7249 13.8392 54.6331 14.0637L53.2021 17.3434C52.743 18.3551 52.5134 19.1189 52.5134 19.6348C52.5134 20.1005 52.6932 20.4255 53.049 20.6131C53.4087 20.7973 53.9444 20.9146 54.6598 20.9615C54.8052 20.9782 54.9124 21.0419 54.9774 21.1558C55.0425 21.2697 55.0731 21.3903 55.0731 21.5176C55.0731 21.6449 55.0425 21.7588 54.9774 21.8559C54.9124 21.9531 54.8091 21.9933 54.6598 21.9765C53.5388 21.8794 52.5287 21.8325 51.6296 21.8325C51.1169 21.8325 50.6501 21.8492 50.2369 21.8794C49.8236 21.9129 49.3951 21.943 48.9551 21.9765C48.8097 21.9933 48.7026 21.9531 48.6375 21.8559C48.5725 21.7588 48.5419 21.6482 48.5419 21.5176C48.5419 21.3869 48.5725 21.2697 48.6375 21.1558C48.7026 21.0452 48.8059 20.9782 48.9551 20.9615C49.3033 20.928 49.5979 20.8375 49.8351 20.6834C50.0723 20.5293 50.2751 20.3484 50.4396 20.1407C50.6042 19.933 50.7419 19.7052 50.8529 19.464C50.9638 19.2228 51.0633 18.9983 51.1551 18.7873C52.5325 15.6851 53.8793 12.6298 55.1917 9.62144C56.504 6.61306 57.8508 3.55779 59.2282 0.455611L59.2321 0.462312ZM59.4807 2.97152L55.5705 11.8961C55.4786 12.0737 55.5092 12.2312 55.6661 12.3652C55.823 12.5025 56.0296 12.5695 56.2859 12.5695H62.2623C62.5187 12.5695 62.7406 12.5126 62.9242 12.402C63.1079 12.2881 63.1615 12.1441 63.0888 11.9665L59.4807 2.96817V2.97152ZM78.5424 3.21273C78.5424 2.58626 78.4277 2.0938 78.1981 1.74204C77.9685 1.38693 77.4788 1.17923 76.725 1.11558C76.5796 1.09883 76.4687 1.03518 76.396 0.921273C76.3233 0.80737 76.285 0.686767 76.285 0.559464C76.285 0.432161 76.3233 0.318258 76.396 0.221106C76.4687 0.123953 76.5796 0.0837521 76.725 0.100502C77.6433 0.164154 78.4697 0.204355 79.2044 0.221106C79.939 0.237856 80.6736 0.244556 81.4082 0.244556C82.1428 0.244556 82.908 0.237856 83.6541 0.221106C84.3964 0.204355 85.2381 0.164154 86.1755 0.100502C86.3209 0.0837521 86.4281 0.123953 86.4931 0.221106C86.5582 0.318258 86.5888 0.428811 86.5888 0.559464C86.5888 0.690117 86.5582 0.80737 86.4931 0.921273C86.4281 1.03518 86.3248 1.09883 86.1755 1.11558C85.4218 1.17923 84.9282 1.39028 84.6872 1.74204C84.45 2.09715 84.3275 2.58626 84.3275 3.21273V18.8677C84.3275 20.1541 85.1731 20.7973 86.8604 20.7973C88.0886 20.7973 89.1637 20.7404 90.082 20.6298C91.0003 20.5193 91.8726 20.2613 92.6991 19.8593C93.5255 19.4908 94.2142 18.9883 94.7652 18.3518C95.3161 17.7152 95.6911 16.9179 95.8939 15.9531C95.913 15.8392 95.978 15.7655 96.0852 15.7253C96.1961 15.6851 96.3224 15.665 96.4716 15.665C96.6208 15.665 96.7471 15.6884 96.858 15.7387C96.969 15.7889 97.0149 15.876 96.9958 16.0033C96.9422 16.4221 96.8963 16.8677 96.858 17.3434C96.8198 17.8191 96.7853 18.2948 96.7471 18.7772C96.7088 19.2596 96.6782 19.7253 96.6514 20.1776C96.6246 20.6265 96.6017 21.0452 96.5826 21.4305C96.5443 21.799 96.2956 21.9866 95.8403 21.9866C94.3175 21.9698 92.9898 21.9531 91.8611 21.9397C90.7324 21.9229 89.642 21.9129 88.5975 21.9028C87.5491 21.8961 86.4701 21.8861 85.3606 21.8794C84.2472 21.8727 82.931 21.8593 81.4082 21.8425C80.6544 21.8258 79.916 21.8291 79.1891 21.8559C78.4621 21.8794 77.6433 21.9229 76.725 21.9899C76.5796 22.0067 76.4687 21.9665 76.396 21.8693C76.3233 21.7722 76.285 21.6616 76.285 21.531C76.285 21.4003 76.3233 21.2831 76.396 21.1692C76.4687 21.0586 76.5796 20.9916 76.725 20.9749C77.4788 20.8945 77.9685 20.6801 78.1981 20.335C78.4277 19.9899 78.5424 19.5042 78.5424 18.8744V3.21273Z" fill="url(#paint0_linear_357_4160)"/>
<defs>
<linearGradient id="paint0_linear_357_4160" x1="0.00382611" y1="11.0017" x2="97.0034" y2="11.0017" gradientUnits="userSpaceOnUse">
<stop stop-color="#FAD483"/>
<stop offset="0.23" stop-color="#F0CC80"/>
<stop offset="0.41" stop-color="#FDEBA7"/>
<stop offset="0.59" stop-color="#FEEBA6"/>
<stop offset="0.77" stop-color="#FCF8CB"/>
<stop offset="1" stop-color="#FDECAB"/>
</linearGradient>
</defs>
</svg>
