<svg width="40" height="41" viewBox="0 0 40 41" fill="none" xmlns="http://www.w3.org/2000/svg">
<g id="Social Media / Telegram">
<path id="Vector" d="M11.1281 19.7915C11.1281 19.7915 19.266 16.3639 22.0883 15.157C23.1702 14.6743 26.8393 13.1294 26.8393 13.1294C26.8393 13.1294 28.5328 12.4536 28.3916 14.0949C28.3446 14.7708 27.9683 17.1363 27.592 19.6949C27.0275 23.3156 26.416 27.2742 26.416 27.2742C26.416 27.2742 26.3219 28.3845 25.5222 28.5776C24.7226 28.7707 23.4054 27.9018 23.1702 27.7087C22.982 27.5639 19.6423 25.3914 18.4192 24.3294C18.0899 24.0397 17.7136 23.4605 18.4662 22.7846C20.1597 21.1915 22.1824 19.2122 23.4054 17.957C23.9699 17.3777 24.5344 16.026 22.1824 17.6673C18.8426 20.0328 15.5498 22.2535 15.5498 22.2535C15.5498 22.2535 14.7972 22.7363 13.386 22.3018C11.9747 21.8673 10.3283 21.288 10.3283 21.288C10.3283 21.288 9.19946 20.5639 11.1281 19.7915Z" fill="white"/>
</g>
</svg>
