<svg width="52" height="52" viewBox="0 0 52 52" fill="none" xmlns="http://www.w3.org/2000/svg">
<g clip-path="url(#clip0_357_3992)">
<path d="M4.7762 49.9782H40.8989C40.8989 49.9782 43.9872 49.0787 43.8852 47.8916C43.8203 47.1033 43.8666 18.1124 43.8852 7.36365C43.8852 4.90601 43.8852 3.4036 43.8852 3.4036V2.01248H10.7487C10.7487 2.01248 8.7548 2.51328 8.66206 4.30319C8.56932 6.0931 8.85682 44.9146 8.85682 44.9146L1.49316 44.896C1.49316 44.896 1.59518 48.6799 4.7762 49.9782Z" stroke="#FEEBA6" stroke-width="1.2" stroke-miterlimit="10"/>
<path d="M43.9594 7.33583H50.3957C50.3957 7.33583 52.0836 2.01248 43.8853 2.01248" stroke="#FEEBA6" stroke-width="1.2" stroke-miterlimit="10"/>
<path d="M8.81982 44.9239L37.0132 44.9053C37.0132 44.9053 36.7628 49.867 40.9083 49.9875" stroke="#FEEBA6" stroke-width="1.2" stroke-miterlimit="10"/>
<path d="M20.2734 10.4241H31.3467" stroke="#FEEBA6" stroke-width="1.5" stroke-miterlimit="10"/>
<path d="M12.585 15.5527H39.2666" stroke="#FEEBA6" stroke-width="1.5" stroke-miterlimit="10"/>
<path d="M12.585 20.5051H31.3465" stroke="#FEEBA6" stroke-width="1.5" stroke-miterlimit="10"/>
<path d="M33.6743 20.5051H39.5448" stroke="#FEEBA6" stroke-width="1.5" stroke-miterlimit="10"/>
<path d="M12.585 25.3369H39.2666" stroke="#FEEBA6" stroke-width="1.5" stroke-miterlimit="10"/>
<path d="M12.585 30.2986H23.1853" stroke="#FEEBA6" stroke-width="1.5" stroke-miterlimit="10"/>
<path d="M12.585 34.6017H17.2406" stroke="#FEEBA6" stroke-width="1.5" stroke-miterlimit="10"/>
<path d="M20.2734 34.6017H23.1855" stroke="#FEEBA6" stroke-width="1.5" stroke-miterlimit="10"/>
<path d="M38.6826 33.0901C38.6826 35.4642 36.7535 37.384 34.3886 37.384C33.1181 37.384 31.9681 36.8275 31.1798 35.9465C30.5028 35.186 30.0854 34.1844 30.0854 33.0808C30.0854 30.7066 32.0145 28.7869 34.3794 28.7869C36.7443 28.7869 38.6733 30.7159 38.6733 33.0808L38.6826 33.0901Z" stroke="#FEEBA6" stroke-width="1.2" stroke-miterlimit="10"/>
<path d="M31.8936 36.5029V41.7057L34.4347 39.8694L36.6141 41.7057V36.5029" stroke="#FEEBA6" stroke-width="0.84" stroke-miterlimit="10"/>
</g>
<defs>
<clipPath id="clip0_357_3992">
<rect width="52" height="52" fill="white"/>
</clipPath>
</defs>
</svg>
