<svg width="22" height="17" viewBox="0 0 22 17" fill="none" xmlns="http://www.w3.org/2000/svg">
<g id="Capa 2">
<g id="ELEMENTS">
<path id="Vector" d="M20.9275 2.16732C20.267 2.45181 19.5727 2.64991 18.8616 2.75673C19.1941 2.69969 19.6832 2.10077 19.8779 1.85835C20.1737 1.49268 20.3992 1.07524 20.5428 0.627235C20.5428 0.593962 20.5761 0.546428 20.5428 0.522662C20.5261 0.513509 20.5073 0.508712 20.4882 0.508712C20.4691 0.508712 20.4503 0.513509 20.4336 0.522662C19.6615 0.941156 18.8397 1.26056 17.9878 1.47333C17.9581 1.48241 17.9265 1.48322 17.8964 1.47569C17.8663 1.46815 17.8387 1.45255 17.8168 1.43055C17.7505 1.35152 17.6791 1.27689 17.6031 1.20714C17.2556 0.895537 16.8614 0.640501 16.4348 0.451361C15.859 0.214919 15.2371 0.112522 14.6159 0.151901C14.0132 0.189998 13.4248 0.351797 12.8872 0.627235C12.3579 0.917627 11.8926 1.31213 11.5195 1.78705C11.127 2.27586 10.8436 2.84314 10.6884 3.45072C10.5604 4.02865 10.5459 4.62598 10.6457 5.20946C10.6457 5.30928 10.6457 5.32353 10.5602 5.30928C7.17405 4.81017 4.39581 3.60758 2.12573 1.02652C2.026 0.912435 1.97376 0.912435 1.89303 1.02652C0.905209 2.52857 1.38487 4.90524 2.61964 6.07932C2.78586 6.23618 2.95683 6.38828 3.13729 6.53088C2.57116 6.49066 2.01885 6.3371 1.5131 6.07932C1.41811 6.01752 1.36587 6.0508 1.36112 6.16488C1.34766 6.32303 1.34766 6.48205 1.36112 6.64021C1.46022 7.39818 1.75866 8.1162 2.22594 8.72086C2.69322 9.32552 3.31256 9.79512 4.02063 10.0816C4.19324 10.1556 4.3731 10.2114 4.55728 10.248C4.03318 10.3513 3.49565 10.3673 2.96633 10.2955C2.85235 10.2718 2.80961 10.3336 2.85235 10.4429C3.55047 12.3442 5.06544 12.9241 6.17673 13.2474C6.3287 13.2711 6.48067 13.2711 6.65164 13.3091C6.65164 13.3091 6.65164 13.3091 6.62315 13.3377C6.29546 13.9366 4.97045 14.3406 4.36257 14.5498C3.25302 14.9487 2.07003 15.1011 0.895711 14.9966C0.710495 14.9681 0.667753 14.9728 0.620262 14.9966C0.572771 15.0203 0.620262 15.0726 0.672502 15.1202C0.909958 15.277 1.14741 15.4149 1.39437 15.548C2.12955 15.9493 2.90679 16.2681 3.71194 16.4986C7.88166 17.6489 12.5738 16.8029 15.7035 13.6894C18.1635 11.2462 19.0278 7.87608 19.0278 4.50121C19.0278 4.37287 19.1846 4.29681 19.2748 4.23027C19.8972 3.7449 20.4459 3.17169 20.9037 2.52857C20.983 2.4327 21.0237 2.31064 21.0177 2.18633C21.0177 2.11503 21.0177 2.12929 20.9275 2.16732Z" fill="white"/>
</g>
</g>
</svg>
