<svg width="522" height="126" viewBox="0 0 522 126" fill="none" xmlns="http://www.w3.org/2000/svg">
<mask id="path-1-inside-1_375_4808" fill="white">
<path d="M12.1687 18.4002C12.1687 14.8122 11.5304 11.9918 10.2332 9.97716C8.95665 7.94335 6.27995 6.75377 2.22372 6.38922C1.4413 6.29328 0.86478 5.92873 0.51475 5.27638C0.16472 4.62403 0 3.9333 0 3.2042C0 2.4751 0.18531 1.82275 0.53534 1.26633C0.88537 0.709913 1.4413 0.479671 2.24431 0.575605C7.28886 0.844221 11.7775 1.07446 15.7308 1.26633C19.684 1.4582 23.6785 1.53495 27.7347 1.53495C34.653 1.53495 41.4889 1.28552 48.263 0.767474C55.0371 0.268616 61.8318 0 68.6471 0C75.4624 0 81.3923 0.479671 87.034 1.4582C92.6756 2.41754 97.5555 4.10598 101.715 6.50434C105.874 8.90269 109.148 12.1261 111.577 16.1745C114.007 20.2229 115.201 25.3842 115.201 31.6391C115.201 36.6085 114.46 41.0407 112.977 44.8972C111.495 48.7538 109.374 52.169 106.594 55.1238C103.835 58.0786 100.582 60.5537 96.876 62.5875C93.1698 64.6213 89.093 66.2713 84.6455 67.5569C88.8047 69.2069 92.2226 71.3367 94.9405 73.9077C97.6584 76.4787 99.9027 79.28 101.694 82.2732C103.465 85.2663 104.906 88.3938 105.997 91.6747C107.089 94.9365 108.077 98.1023 108.962 101.134C109.745 103.705 110.527 106.161 111.268 108.463C112.01 110.766 112.916 112.761 114.007 114.469C115.098 116.176 116.375 117.539 117.857 118.536C119.34 119.553 121.213 120.052 123.499 120.052C124.281 120.052 124.878 120.359 125.27 120.954C125.661 121.549 125.867 122.22 125.867 122.949C125.867 123.678 125.661 124.35 125.27 124.945C124.878 125.54 124.281 125.847 123.499 125.847C120.534 125.847 117.795 125.866 115.263 125.923C112.751 125.962 110.383 126 108.221 126C102.682 126 98.132 125.501 94.5905 124.484C91.0284 123.467 88.0223 121.721 85.5515 119.227C83.0807 116.733 80.9393 113.356 79.1068 109.077C77.2743 104.799 75.3182 99.3878 73.2592 92.8451C72.6621 91.1951 72.0238 89.2764 71.3238 87.1083C70.6237 84.9401 69.8413 82.8296 68.9559 80.7574C68.0706 78.6852 67.0617 76.7474 65.9086 74.963C64.7762 73.1594 63.5202 71.8547 62.1201 71.0297C55.9842 71.7588 49.7249 71.9123 43.3008 71.4518V108.06C43.3008 112.205 44.3097 115.121 46.3481 116.829C48.3659 118.536 52.1133 119.611 57.5491 120.071C58.3315 120.167 58.9286 120.532 59.3198 121.184C59.711 121.836 59.9169 122.527 59.9169 123.256C59.9169 123.985 59.711 124.638 59.3198 125.194C58.9286 125.751 58.3315 125.981 57.5491 125.885C52.9987 125.52 48.4277 125.29 43.8361 125.194C39.2446 125.098 34.6118 125.06 29.9791 125.06C25.3463 125.06 20.59 125.098 16.0396 125.194C11.4892 125.29 6.89765 125.52 2.24431 125.885C1.46189 125.981 0.88537 125.751 0.53534 125.194C0.18531 124.638 0.02059 124.005 0.02059 123.256C0.02059 122.508 0.18531 121.836 0.53534 121.184C0.88537 120.551 1.4413 120.167 2.24431 120.071C6.30054 119.611 8.95665 118.383 10.2538 116.407C11.5304 114.43 12.1893 111.648 12.1893 108.041V18.4002H12.1687ZM43.3008 18.2467V67.8447C50.1161 67.7487 56.1078 66.8278 61.2347 65.0818C66.3822 63.3358 70.7061 60.8607 74.2064 57.6948C77.7067 54.5098 80.3422 50.6916 82.0718 46.2211C83.8013 41.7506 84.6249 36.762 84.522 31.2362C84.522 27.6482 84.0484 24.2522 83.1219 21.0863C82.1747 17.9013 80.754 15.1384 78.8186 12.7976C76.8831 10.4568 74.3917 8.57652 71.3238 7.19507C68.2559 5.81361 64.5085 5.12289 60.0611 5.12289C55.2224 5.12289 51.2074 6.02467 48.0571 7.80904C44.9068 9.59342 43.3214 13.0854 43.3214 18.2467H43.3008ZM147.239 18.4002C147.239 14.8122 146.621 12.0301 145.386 10.0347C144.151 8.05847 141.515 6.83052 137.459 6.37003C136.676 6.2741 136.079 5.90955 135.688 5.25719C135.297 4.60484 135.091 3.91412 135.091 3.18502C135.091 2.53266 135.297 1.93787 135.688 1.38145C136.079 0.825034 136.676 0.594792 137.459 0.690726C142.298 1.05528 146.704 1.30471 150.657 1.4582C154.61 1.59251 158.564 1.61169 162.517 1.53495C170.424 1.43901 177.486 1.38145 183.725 1.32389C189.943 1.28552 196.058 1.22796 202.029 1.18958C208 1.15121 214.218 1.07446 220.643 0.978529C227.067 0.882595 234.376 0.786661 242.591 0.709913C245.062 0.709913 246.401 1.72682 246.586 3.74143C246.689 5.94792 246.812 8.34628 246.957 10.9173C247.101 13.4883 247.286 16.1745 247.471 18.9374C247.677 21.7003 247.863 24.444 248.068 27.1494C248.274 29.8739 248.521 32.4258 248.81 34.8241C248.913 35.5532 248.666 36.0713 248.068 36.3399C247.471 36.6085 246.792 36.762 245.989 36.762C245.186 36.762 244.527 36.6469 243.992 36.4166C243.456 36.1864 243.086 35.7451 242.88 35.1119C241.891 29.1256 239.832 24.3097 236.723 20.6834C233.614 17.0379 229.846 14.2366 225.461 12.2604C221.054 10.2841 216.195 8.96026 210.862 8.32709C205.529 7.67474 200.032 7.36775 194.411 7.36775C189.181 7.36775 185.187 8.19278 182.469 9.86204C179.751 11.5121 178.392 14.3709 178.392 18.4194V56.1407C178.392 58.1745 178.886 59.4792 179.874 60.074C180.863 60.6688 182.489 60.9758 184.775 60.9758H200.485C204.335 60.9758 207.506 60.7072 209.977 60.1507C212.448 59.5943 214.404 58.7309 215.824 57.5222C217.266 56.3326 218.316 54.7209 219.016 52.6871C219.716 50.6533 220.251 48.2165 220.643 45.3577C220.848 44.0722 221.878 43.4198 223.752 43.4198C224.534 43.4198 225.234 43.6309 225.831 44.0338C226.428 44.4559 226.675 44.974 226.572 45.6263C226.078 48.8497 225.79 51.9196 225.687 54.8168C225.584 57.714 225.543 60.6496 225.543 63.5852C225.543 66.5208 225.584 69.4564 225.687 72.3536C225.79 75.2508 226.078 78.3207 226.572 81.5441C226.675 82.2732 226.428 82.8296 225.831 83.1941C225.234 83.5587 224.555 83.7506 223.752 83.7506C221.878 83.7506 220.828 83.0982 220.643 81.8127C220.251 78.9538 219.695 76.5363 219.016 74.5601C218.316 72.5838 217.266 70.9913 215.824 69.8017C214.383 68.6121 212.448 67.7295 209.977 67.1731C207.506 66.6167 204.335 66.3481 200.485 66.3481H184.775C182.51 66.3481 180.863 66.6551 179.874 67.2499C178.886 67.8447 178.392 69.1686 178.392 71.1832V108.06C178.392 112.109 179.833 114.968 182.695 116.618C185.557 118.268 189.655 119.112 195.008 119.112C201.617 119.112 207.774 118.786 213.457 118.153C219.139 117.519 224.205 116.042 228.652 113.74C233.1 111.629 236.826 108.751 239.853 105.106C242.859 101.46 244.877 96.8935 245.865 91.3677C246.071 90.7154 246.442 90.2933 246.977 90.063C247.512 89.8328 248.192 89.7177 248.974 89.7177C249.757 89.7177 250.457 89.852 251.054 90.1398C251.651 90.4276 251.898 90.9264 251.795 91.6555C251.507 94.0539 251.26 96.6057 251.054 99.3303C250.848 102.055 250.663 104.779 250.457 107.542C250.251 110.305 250.086 112.972 249.942 115.562C249.798 118.133 249.674 120.532 249.572 122.738C249.366 124.849 248.048 125.923 245.577 125.923C237.362 125.827 230.011 125.731 223.484 125.655C216.957 125.559 210.595 125.463 204.356 125.386C198.138 125.29 191.734 125.233 185.166 125.175C178.598 125.137 171.103 125.06 162.702 124.964C158.646 124.868 154.672 124.945 150.76 125.175C146.848 125.405 142.442 125.655 137.5 125.942C136.718 126.038 136.121 125.808 135.729 125.252C135.338 124.695 135.132 124.062 135.132 123.314C135.132 122.566 135.338 121.894 135.729 121.242C136.121 120.608 136.718 120.225 137.5 120.129C141.556 119.668 144.192 118.44 145.427 116.464C146.663 114.488 147.28 111.706 147.28 108.099V18.4002H147.239ZM318.754 2.64778C319.248 1.1704 320.133 0.537232 321.431 0.709913C323.016 0.901782 324.622 1.03609 326.249 1.13202C327.875 1.22796 329.481 1.26633 331.067 1.26633C333.435 1.26633 335.802 1.18958 338.191 1.05528C340.559 0.920968 342.885 0.805847 345.15 0.709913C346.736 0.709913 347.724 1.30471 348.115 2.51348L387.113 107.638C387.71 109.384 388.307 110.977 388.883 112.397C389.481 113.816 390.16 115.083 390.963 116.196C391.745 117.308 392.796 118.172 394.072 118.824C395.349 119.476 396.996 119.879 398.973 120.071C399.755 120.167 400.332 120.532 400.682 121.184C401.032 121.836 401.196 122.527 401.196 123.256C401.196 123.985 401.032 124.638 400.682 125.194C400.332 125.751 399.776 125.981 398.973 125.885C393.928 125.52 389.172 125.29 384.663 125.194C380.174 125.098 375.85 125.06 371.691 125.06C367.532 125.06 362.899 125.098 357.463 125.194C352.027 125.29 346.88 125.52 342.041 125.885C341.259 125.981 340.662 125.751 340.27 125.194C339.879 124.638 339.673 124.005 339.673 123.256C339.673 122.508 339.859 121.836 340.27 121.184C340.662 120.551 341.259 120.167 342.041 120.071C345.789 119.707 348.692 118.939 350.71 117.788C352.727 116.637 353.757 114.45 353.757 111.226C353.757 109.653 353.51 107.868 353.016 105.835C352.522 103.801 351.78 101.46 350.792 98.793L344.121 80.9685C343.627 79.6829 342.659 78.762 341.238 78.2056C339.797 77.6491 338.191 77.3805 336.42 77.3805H302.467C300.388 77.3805 298.596 77.5916 297.052 77.9945C295.508 78.4166 294.499 79.2608 294.005 80.5464L286.304 99.3303C283.833 105.125 282.598 109.499 282.598 112.454C282.598 115.121 283.566 116.982 285.48 118.057C287.416 119.112 290.299 119.783 294.149 120.052C294.931 120.148 295.508 120.513 295.858 121.165C296.208 121.817 296.373 122.508 296.373 123.237C296.373 123.966 296.208 124.619 295.858 125.175C295.508 125.731 294.952 125.962 294.149 125.866C288.116 125.309 282.68 125.041 277.842 125.041C275.082 125.041 272.57 125.137 270.347 125.309C268.123 125.501 265.817 125.674 263.449 125.866C262.667 125.962 262.09 125.731 261.74 125.175C261.39 124.619 261.225 123.985 261.225 123.237C261.225 122.489 261.39 121.817 261.74 121.165C262.09 120.532 262.646 120.148 263.449 120.052C265.323 119.86 266.908 119.342 268.185 118.46C269.461 117.577 270.553 116.541 271.438 115.351C272.323 114.162 273.065 112.857 273.662 111.476C274.259 110.094 274.794 108.809 275.288 107.6C282.701 89.8328 289.949 72.3344 297.011 55.1046C304.073 37.8748 311.321 20.3764 318.733 2.60941L318.754 2.64778ZM320.092 17.0187L299.049 68.1325C298.555 69.1494 298.72 70.0512 299.564 70.8186C300.408 71.6053 301.52 71.989 302.9 71.989H335.061C336.441 71.989 337.635 71.6628 338.623 71.0297C339.612 70.3773 339.9 69.5523 339.509 68.5354L320.092 16.9995V17.0187ZM422.672 18.4002C422.672 14.8122 422.054 11.9918 420.819 9.97716C419.583 7.94335 416.948 6.75377 412.891 6.38922C412.109 6.29328 411.512 5.92873 411.121 5.27638C410.729 4.62403 410.524 3.9333 410.524 3.2042C410.524 2.4751 410.729 1.82275 411.121 1.26633C411.512 0.709913 412.109 0.479671 412.891 0.575605C417.833 0.940155 422.28 1.1704 426.234 1.26633C430.187 1.36227 434.14 1.40064 438.094 1.40064C442.047 1.40064 446.165 1.36227 450.18 1.26633C454.174 1.1704 458.704 0.940155 463.749 0.575605C464.531 0.479671 465.108 0.709913 465.458 1.26633C465.808 1.82275 465.972 2.45592 465.972 3.2042C465.972 3.95249 465.808 4.62403 465.458 5.27638C465.108 5.92873 464.552 6.29328 463.749 6.38922C459.693 6.75377 457.036 7.96254 455.739 9.97716C454.463 12.011 453.804 14.8122 453.804 18.4002V108.06C453.804 115.428 458.354 119.112 467.434 119.112C474.044 119.112 479.83 118.786 484.771 118.153C489.713 117.519 494.407 116.042 498.855 113.74C503.302 111.629 507.008 108.751 509.973 105.106C512.938 101.46 514.956 96.8935 516.047 91.3677C516.15 90.7154 516.5 90.2933 517.077 90.063C517.674 89.8328 518.353 89.7177 519.156 89.7177C519.959 89.7177 520.639 89.852 521.236 90.1398C521.833 90.4276 522.08 90.9264 521.977 91.6555C521.689 94.0539 521.442 96.6057 521.236 99.3303C521.03 102.055 520.845 104.779 520.639 107.542C520.433 110.305 520.268 112.972 520.124 115.562C519.98 118.133 519.857 120.532 519.754 122.738C519.548 124.849 518.209 125.923 515.759 125.923C507.564 125.827 500.42 125.731 494.345 125.655C488.271 125.559 482.403 125.501 476.782 125.444C471.141 125.405 465.334 125.348 459.363 125.309C453.371 125.271 446.288 125.194 438.094 125.098C434.037 125.002 430.064 125.021 426.151 125.175C422.239 125.309 417.833 125.559 412.891 125.942C412.109 126.038 411.512 125.808 411.121 125.252C410.729 124.695 410.524 124.062 410.524 123.314C410.524 122.566 410.729 121.894 411.121 121.242C411.512 120.608 412.109 120.225 412.891 120.129C416.948 119.668 419.583 118.44 420.819 116.464C422.054 114.488 422.672 111.706 422.672 108.099V18.4002Z"/>
</mask>
<path d="M12.1687 18.4002C12.1687 14.8122 11.5304 11.9918 10.2332 9.97716C8.95665 7.94335 6.27995 6.75377 2.22372 6.38922C1.4413 6.29328 0.86478 5.92873 0.51475 5.27638C0.16472 4.62403 0 3.9333 0 3.2042C0 2.4751 0.18531 1.82275 0.53534 1.26633C0.88537 0.709913 1.4413 0.479671 2.24431 0.575605C7.28886 0.844221 11.7775 1.07446 15.7308 1.26633C19.684 1.4582 23.6785 1.53495 27.7347 1.53495C34.653 1.53495 41.4889 1.28552 48.263 0.767474C55.0371 0.268616 61.8318 0 68.6471 0C75.4624 0 81.3923 0.479671 87.034 1.4582C92.6756 2.41754 97.5555 4.10598 101.715 6.50434C105.874 8.90269 109.148 12.1261 111.577 16.1745C114.007 20.2229 115.201 25.3842 115.201 31.6391C115.201 36.6085 114.46 41.0407 112.977 44.8972C111.495 48.7538 109.374 52.169 106.594 55.1238C103.835 58.0786 100.582 60.5537 96.876 62.5875C93.1698 64.6213 89.093 66.2713 84.6455 67.5569C88.8047 69.2069 92.2226 71.3367 94.9405 73.9077C97.6584 76.4787 99.9027 79.28 101.694 82.2732C103.465 85.2663 104.906 88.3938 105.997 91.6747C107.089 94.9365 108.077 98.1023 108.962 101.134C109.745 103.705 110.527 106.161 111.268 108.463C112.01 110.766 112.916 112.761 114.007 114.469C115.098 116.176 116.375 117.539 117.857 118.536C119.34 119.553 121.213 120.052 123.499 120.052C124.281 120.052 124.878 120.359 125.27 120.954C125.661 121.549 125.867 122.22 125.867 122.949C125.867 123.678 125.661 124.35 125.27 124.945C124.878 125.54 124.281 125.847 123.499 125.847C120.534 125.847 117.795 125.866 115.263 125.923C112.751 125.962 110.383 126 108.221 126C102.682 126 98.132 125.501 94.5905 124.484C91.0284 123.467 88.0223 121.721 85.5515 119.227C83.0807 116.733 80.9393 113.356 79.1068 109.077C77.2743 104.799 75.3182 99.3878 73.2592 92.8451C72.6621 91.1951 72.0238 89.2764 71.3238 87.1083C70.6237 84.9401 69.8413 82.8296 68.9559 80.7574C68.0706 78.6852 67.0617 76.7474 65.9086 74.963C64.7762 73.1594 63.5202 71.8547 62.1201 71.0297C55.9842 71.7588 49.7249 71.9123 43.3008 71.4518V108.06C43.3008 112.205 44.3097 115.121 46.3481 116.829C48.3659 118.536 52.1133 119.611 57.5491 120.071C58.3315 120.167 58.9286 120.532 59.3198 121.184C59.711 121.836 59.9169 122.527 59.9169 123.256C59.9169 123.985 59.711 124.638 59.3198 125.194C58.9286 125.751 58.3315 125.981 57.5491 125.885C52.9987 125.52 48.4277 125.29 43.8361 125.194C39.2446 125.098 34.6118 125.06 29.9791 125.06C25.3463 125.06 20.59 125.098 16.0396 125.194C11.4892 125.29 6.89765 125.52 2.24431 125.885C1.46189 125.981 0.88537 125.751 0.53534 125.194C0.18531 124.638 0.02059 124.005 0.02059 123.256C0.02059 122.508 0.18531 121.836 0.53534 121.184C0.88537 120.551 1.4413 120.167 2.24431 120.071C6.30054 119.611 8.95665 118.383 10.2538 116.407C11.5304 114.43 12.1893 111.648 12.1893 108.041V18.4002H12.1687ZM43.3008 18.2467V67.8447C50.1161 67.7487 56.1078 66.8278 61.2347 65.0818C66.3822 63.3358 70.7061 60.8607 74.2064 57.6948C77.7067 54.5098 80.3422 50.6916 82.0718 46.2211C83.8013 41.7506 84.6249 36.762 84.522 31.2362C84.522 27.6482 84.0484 24.2522 83.1219 21.0863C82.1747 17.9013 80.754 15.1384 78.8186 12.7976C76.8831 10.4568 74.3917 8.57652 71.3238 7.19507C68.2559 5.81361 64.5085 5.12289 60.0611 5.12289C55.2224 5.12289 51.2074 6.02467 48.0571 7.80904C44.9068 9.59342 43.3214 13.0854 43.3214 18.2467H43.3008ZM147.239 18.4002C147.239 14.8122 146.621 12.0301 145.386 10.0347C144.151 8.05847 141.515 6.83052 137.459 6.37003C136.676 6.2741 136.079 5.90955 135.688 5.25719C135.297 4.60484 135.091 3.91412 135.091 3.18502C135.091 2.53266 135.297 1.93787 135.688 1.38145C136.079 0.825034 136.676 0.594792 137.459 0.690726C142.298 1.05528 146.704 1.30471 150.657 1.4582C154.61 1.59251 158.564 1.61169 162.517 1.53495C170.424 1.43901 177.486 1.38145 183.725 1.32389C189.943 1.28552 196.058 1.22796 202.029 1.18958C208 1.15121 214.218 1.07446 220.643 0.978529C227.067 0.882595 234.376 0.786661 242.591 0.709913C245.062 0.709913 246.401 1.72682 246.586 3.74143C246.689 5.94792 246.812 8.34628 246.957 10.9173C247.101 13.4883 247.286 16.1745 247.471 18.9374C247.677 21.7003 247.863 24.444 248.068 27.1494C248.274 29.8739 248.521 32.4258 248.81 34.8241C248.913 35.5532 248.666 36.0713 248.068 36.3399C247.471 36.6085 246.792 36.762 245.989 36.762C245.186 36.762 244.527 36.6469 243.992 36.4166C243.456 36.1864 243.086 35.7451 242.88 35.1119C241.891 29.1256 239.832 24.3097 236.723 20.6834C233.614 17.0379 229.846 14.2366 225.461 12.2604C221.054 10.2841 216.195 8.96026 210.862 8.32709C205.529 7.67474 200.032 7.36775 194.411 7.36775C189.181 7.36775 185.187 8.19278 182.469 9.86204C179.751 11.5121 178.392 14.3709 178.392 18.4194V56.1407C178.392 58.1745 178.886 59.4792 179.874 60.074C180.863 60.6688 182.489 60.9758 184.775 60.9758H200.485C204.335 60.9758 207.506 60.7072 209.977 60.1507C212.448 59.5943 214.404 58.7309 215.824 57.5222C217.266 56.3326 218.316 54.7209 219.016 52.6871C219.716 50.6533 220.251 48.2165 220.643 45.3577C220.848 44.0722 221.878 43.4198 223.752 43.4198C224.534 43.4198 225.234 43.6309 225.831 44.0338C226.428 44.4559 226.675 44.974 226.572 45.6263C226.078 48.8497 225.79 51.9196 225.687 54.8168C225.584 57.714 225.543 60.6496 225.543 63.5852C225.543 66.5208 225.584 69.4564 225.687 72.3536C225.79 75.2508 226.078 78.3207 226.572 81.5441C226.675 82.2732 226.428 82.8296 225.831 83.1941C225.234 83.5587 224.555 83.7506 223.752 83.7506C221.878 83.7506 220.828 83.0982 220.643 81.8127C220.251 78.9538 219.695 76.5363 219.016 74.5601C218.316 72.5838 217.266 70.9913 215.824 69.8017C214.383 68.6121 212.448 67.7295 209.977 67.1731C207.506 66.6167 204.335 66.3481 200.485 66.3481H184.775C182.51 66.3481 180.863 66.6551 179.874 67.2499C178.886 67.8447 178.392 69.1686 178.392 71.1832V108.06C178.392 112.109 179.833 114.968 182.695 116.618C185.557 118.268 189.655 119.112 195.008 119.112C201.617 119.112 207.774 118.786 213.457 118.153C219.139 117.519 224.205 116.042 228.652 113.74C233.1 111.629 236.826 108.751 239.853 105.106C242.859 101.46 244.877 96.8935 245.865 91.3677C246.071 90.7154 246.442 90.2933 246.977 90.063C247.512 89.8328 248.192 89.7177 248.974 89.7177C249.757 89.7177 250.457 89.852 251.054 90.1398C251.651 90.4276 251.898 90.9264 251.795 91.6555C251.507 94.0539 251.26 96.6057 251.054 99.3303C250.848 102.055 250.663 104.779 250.457 107.542C250.251 110.305 250.086 112.972 249.942 115.562C249.798 118.133 249.674 120.532 249.572 122.738C249.366 124.849 248.048 125.923 245.577 125.923C237.362 125.827 230.011 125.731 223.484 125.655C216.957 125.559 210.595 125.463 204.356 125.386C198.138 125.29 191.734 125.233 185.166 125.175C178.598 125.137 171.103 125.06 162.702 124.964C158.646 124.868 154.672 124.945 150.76 125.175C146.848 125.405 142.442 125.655 137.5 125.942C136.718 126.038 136.121 125.808 135.729 125.252C135.338 124.695 135.132 124.062 135.132 123.314C135.132 122.566 135.338 121.894 135.729 121.242C136.121 120.608 136.718 120.225 137.5 120.129C141.556 119.668 144.192 118.44 145.427 116.464C146.663 114.488 147.28 111.706 147.28 108.099V18.4002H147.239ZM318.754 2.64778C319.248 1.1704 320.133 0.537232 321.431 0.709913C323.016 0.901782 324.622 1.03609 326.249 1.13202C327.875 1.22796 329.481 1.26633 331.067 1.26633C333.435 1.26633 335.802 1.18958 338.191 1.05528C340.559 0.920968 342.885 0.805847 345.15 0.709913C346.736 0.709913 347.724 1.30471 348.115 2.51348L387.113 107.638C387.71 109.384 388.307 110.977 388.883 112.397C389.481 113.816 390.16 115.083 390.963 116.196C391.745 117.308 392.796 118.172 394.072 118.824C395.349 119.476 396.996 119.879 398.973 120.071C399.755 120.167 400.332 120.532 400.682 121.184C401.032 121.836 401.196 122.527 401.196 123.256C401.196 123.985 401.032 124.638 400.682 125.194C400.332 125.751 399.776 125.981 398.973 125.885C393.928 125.52 389.172 125.29 384.663 125.194C380.174 125.098 375.85 125.06 371.691 125.06C367.532 125.06 362.899 125.098 357.463 125.194C352.027 125.29 346.88 125.52 342.041 125.885C341.259 125.981 340.662 125.751 340.27 125.194C339.879 124.638 339.673 124.005 339.673 123.256C339.673 122.508 339.859 121.836 340.27 121.184C340.662 120.551 341.259 120.167 342.041 120.071C345.789 119.707 348.692 118.939 350.71 117.788C352.727 116.637 353.757 114.45 353.757 111.226C353.757 109.653 353.51 107.868 353.016 105.835C352.522 103.801 351.78 101.46 350.792 98.793L344.121 80.9685C343.627 79.6829 342.659 78.762 341.238 78.2056C339.797 77.6491 338.191 77.3805 336.42 77.3805H302.467C300.388 77.3805 298.596 77.5916 297.052 77.9945C295.508 78.4166 294.499 79.2608 294.005 80.5464L286.304 99.3303C283.833 105.125 282.598 109.499 282.598 112.454C282.598 115.121 283.566 116.982 285.48 118.057C287.416 119.112 290.299 119.783 294.149 120.052C294.931 120.148 295.508 120.513 295.858 121.165C296.208 121.817 296.373 122.508 296.373 123.237C296.373 123.966 296.208 124.619 295.858 125.175C295.508 125.731 294.952 125.962 294.149 125.866C288.116 125.309 282.68 125.041 277.842 125.041C275.082 125.041 272.57 125.137 270.347 125.309C268.123 125.501 265.817 125.674 263.449 125.866C262.667 125.962 262.09 125.731 261.74 125.175C261.39 124.619 261.225 123.985 261.225 123.237C261.225 122.489 261.39 121.817 261.74 121.165C262.09 120.532 262.646 120.148 263.449 120.052C265.323 119.86 266.908 119.342 268.185 118.46C269.461 117.577 270.553 116.541 271.438 115.351C272.323 114.162 273.065 112.857 273.662 111.476C274.259 110.094 274.794 108.809 275.288 107.6C282.701 89.8328 289.949 72.3344 297.011 55.1046C304.073 37.8748 311.321 20.3764 318.733 2.60941L318.754 2.64778ZM320.092 17.0187L299.049 68.1325C298.555 69.1494 298.72 70.0512 299.564 70.8186C300.408 71.6053 301.52 71.989 302.9 71.989H335.061C336.441 71.989 337.635 71.6628 338.623 71.0297C339.612 70.3773 339.9 69.5523 339.509 68.5354L320.092 16.9995V17.0187ZM422.672 18.4002C422.672 14.8122 422.054 11.9918 420.819 9.97716C419.583 7.94335 416.948 6.75377 412.891 6.38922C412.109 6.29328 411.512 5.92873 411.121 5.27638C410.729 4.62403 410.524 3.9333 410.524 3.2042C410.524 2.4751 410.729 1.82275 411.121 1.26633C411.512 0.709913 412.109 0.479671 412.891 0.575605C417.833 0.940155 422.28 1.1704 426.234 1.26633C430.187 1.36227 434.14 1.40064 438.094 1.40064C442.047 1.40064 446.165 1.36227 450.18 1.26633C454.174 1.1704 458.704 0.940155 463.749 0.575605C464.531 0.479671 465.108 0.709913 465.458 1.26633C465.808 1.82275 465.972 2.45592 465.972 3.2042C465.972 3.95249 465.808 4.62403 465.458 5.27638C465.108 5.92873 464.552 6.29328 463.749 6.38922C459.693 6.75377 457.036 7.96254 455.739 9.97716C454.463 12.011 453.804 14.8122 453.804 18.4002V108.06C453.804 115.428 458.354 119.112 467.434 119.112C474.044 119.112 479.83 118.786 484.771 118.153C489.713 117.519 494.407 116.042 498.855 113.74C503.302 111.629 507.008 108.751 509.973 105.106C512.938 101.46 514.956 96.8935 516.047 91.3677C516.15 90.7154 516.5 90.2933 517.077 90.063C517.674 89.8328 518.353 89.7177 519.156 89.7177C519.959 89.7177 520.639 89.852 521.236 90.1398C521.833 90.4276 522.08 90.9264 521.977 91.6555C521.689 94.0539 521.442 96.6057 521.236 99.3303C521.03 102.055 520.845 104.779 520.639 107.542C520.433 110.305 520.268 112.972 520.124 115.562C519.98 118.133 519.857 120.532 519.754 122.738C519.548 124.849 518.209 125.923 515.759 125.923C507.564 125.827 500.42 125.731 494.345 125.655C488.271 125.559 482.403 125.501 476.782 125.444C471.141 125.405 465.334 125.348 459.363 125.309C453.371 125.271 446.288 125.194 438.094 125.098C434.037 125.002 430.064 125.021 426.151 125.175C422.239 125.309 417.833 125.559 412.891 125.942C412.109 126.038 411.512 125.808 411.121 125.252C410.729 124.695 410.524 124.062 410.524 123.314C410.524 122.566 410.729 121.894 411.121 121.242C411.512 120.608 412.109 120.225 412.891 120.129C416.948 119.668 419.583 118.44 420.819 116.464C422.054 114.488 422.672 111.706 422.672 108.099V18.4002Z" stroke="url(#paint0_linear_375_4808)" stroke-opacity="0.1" stroke-width="2" mask="url(#path-1-inside-1_375_4808)"/>
<defs>
<linearGradient id="paint0_linear_375_4808" x1="0.02059" y1="63.0096" x2="522.018" y2="63.0096" gradientUnits="userSpaceOnUse">
<stop stop-color="#FAD483"/>
<stop offset="0.23" stop-color="#F0CC80"/>
<stop offset="0.41" stop-color="#FDEBA7"/>
<stop offset="0.59" stop-color="#FEEBA6"/>
<stop offset="0.77" stop-color="#FCF8CB"/>
<stop offset="1" stop-color="#FDECAB"/>
</linearGradient>
</defs>
</svg>
