<svg width="157" height="23" viewBox="0 0 157 23" fill="none" xmlns="http://www.w3.org/2000/svg">
<path d="M0 21.9174L7.86 0.446651H12.03V4.61702H10.59L4.95 21.9174H0ZM4.23 16.7092L5.39 13.3481H15.91L17.07 16.7092H4.23ZM16.31 21.9174L10.69 4.61702V0.446651H13.42L21.28 21.9174H16.31ZM23.59 21.9174V0.446651H28.31V21.9174H23.59ZM25.95 21.9174V18.5658H32.37C33.71 18.5658 34.75 18.3088 35.46 17.7851C36.17 17.2614 36.54 16.5092 36.54 15.519V15.4904C36.54 14.8335 36.38 14.2812 36.05 13.8337C35.72 13.3862 35.23 13.0434 34.58 12.8149C33.93 12.5864 33.12 12.4722 32.17 12.4722H25.95V9.42532H31.61C32.94 9.42532 33.96 9.16824 34.65 8.66361C35.34 8.15897 35.69 7.43535 35.69 6.50225V6.47369C35.69 5.61676 35.38 4.95979 34.77 4.49324C34.15 4.02669 33.3 3.79818 32.19 3.79818H25.96V0.446651H33.41C34.84 0.446651 36.07 0.665643 37.1 1.10363C38.13 1.54161 38.93 2.1605 39.49 2.96982C40.05 3.77914 40.33 4.73128 40.33 5.83576V5.86432C40.33 6.65459 40.14 7.38774 39.76 8.05424C39.38 8.72073 38.86 9.2825 38.21 9.72048C37.55 10.1585 36.81 10.4346 35.98 10.5488V10.6345C37.03 10.6917 37.96 10.9583 38.78 11.4153C39.6 11.8723 40.23 12.4817 40.69 13.2339C41.15 13.9861 41.39 14.8239 41.39 15.7666V15.7951C41.39 17.0424 41.07 18.1279 40.44 19.0419C39.81 19.956 38.91 20.6606 37.75 21.1652C36.59 21.6698 35.2 21.9174 33.59 21.9174H25.97H25.95ZM54.23 22.2887C52 22.2887 50.07 21.8412 48.44 20.9462C46.81 20.0512 45.55 18.7658 44.67 17.1091C43.78 15.4524 43.34 13.4814 43.34 11.1963V11.1677C43.34 8.8826 43.79 6.92119 44.68 5.26447C45.57 3.60775 46.83 2.33189 48.46 1.43688C50.09 0.541865 52.01 0.0943601 54.23 0.0943601C56.45 0.0943601 58.39 0.541865 60.01 1.4464C61.63 2.35093 62.89 3.62679 63.78 5.27399C64.66 6.92119 65.11 8.89212 65.11 11.1773V11.2058C65.11 13.4909 64.67 15.4524 63.78 17.1091C62.89 18.7658 61.64 20.0417 60.02 20.9462C58.4 21.8507 56.47 22.2982 54.23 22.2982V22.2887ZM54.23 18.4802C55.48 18.4802 56.56 18.185 57.46 17.5756C58.36 16.9758 59.06 16.1284 59.55 15.0429C60.04 13.948 60.28 12.6721 60.28 11.1868V11.1582C60.28 9.67287 60.03 8.37796 59.54 7.29253C59.04 6.19757 58.34 5.35969 57.44 4.76936C56.53 4.17903 55.47 3.88387 54.24 3.88387C53.01 3.88387 51.94 4.17903 51.03 4.76936C50.12 5.35969 49.41 6.19757 48.92 7.28301C48.42 8.36844 48.18 9.66335 48.18 11.1582V11.1868C48.18 12.6721 48.43 13.967 48.92 15.0525C49.41 16.1474 50.12 16.9853 51.02 17.5851C51.92 18.185 53 18.4802 54.24 18.4802H54.23ZM77.59 22.2887C75.66 22.2887 73.99 21.9555 72.57 21.2985C71.15 20.6415 70.06 19.7084 69.29 18.5087C68.52 17.309 68.13 15.9189 68.13 14.3288V0.446651H72.85V13.9289C72.85 14.8525 73.03 15.6523 73.4 16.3283C73.77 17.0043 74.31 17.5375 75.01 17.9089C75.71 18.2897 76.57 18.4706 77.58 18.4706C78.59 18.4706 79.45 18.2802 80.15 17.9089C80.85 17.528 81.39 17.0043 81.75 16.3283C82.11 15.6523 82.3 14.8525 82.3 13.9289V0.446651H87.02V14.3288C87.02 15.9189 86.64 17.309 85.87 18.4992C85.1 19.6989 84.02 20.6225 82.6 21.289C81.19 21.9555 79.51 22.2887 77.58 22.2887H77.59ZM96.17 21.9174V4.15047H89.64V0.446651H107.42V4.15047H100.89V21.9174H96.17ZM125.81 22.2887C123.88 22.2887 122.21 21.9555 120.79 21.2985C119.37 20.6415 118.28 19.7084 117.51 18.5087C116.74 17.309 116.35 15.9189 116.35 14.3288V0.446651H121.07V13.9289C121.07 14.8525 121.25 15.6523 121.62 16.3283C121.99 17.0043 122.53 17.5375 123.23 17.9089C123.93 18.2897 124.79 18.4706 125.8 18.4706C126.81 18.4706 127.67 18.2802 128.37 17.9089C129.07 17.528 129.61 17.0043 129.97 16.3283C130.33 15.6523 130.52 14.8525 130.52 13.9289V0.446651H135.24V14.3288C135.24 15.9189 134.86 17.309 134.09 18.4992C133.32 19.6989 132.24 20.6225 130.82 21.289C129.41 21.9555 127.73 22.2887 125.8 22.2887H125.81ZM147.23 22.2887C145.45 22.2887 143.89 22.0412 142.57 21.5365C141.25 21.0319 140.19 20.3178 139.43 19.3752C138.67 18.4325 138.24 17.309 138.16 15.9951L138.14 15.757H142.59L142.62 15.9189C142.72 16.4711 142.99 16.9567 143.41 17.3566C143.83 17.7565 144.38 18.0707 145.06 18.2897C145.74 18.5087 146.5 18.623 147.36 18.623C148.22 18.623 148.99 18.5087 149.62 18.2897C150.25 18.0707 150.74 17.747 151.08 17.3376C151.42 16.9282 151.6 16.4521 151.6 15.8999V15.8808C151.6 15.1572 151.3 14.5859 150.7 14.1765C150.1 13.7671 149.1 13.4243 147.71 13.1577L145.33 12.7007C143.11 12.2817 141.44 11.5676 140.31 10.5488C139.18 9.53005 138.61 8.2161 138.61 6.59747V6.57842C138.61 5.26447 138.99 4.13143 139.73 3.16025C140.47 2.18906 141.48 1.42735 142.78 0.884635C144.07 0.341916 145.55 0.0657959 147.22 0.0657959C148.89 0.0657959 150.46 0.322873 151.73 0.846549C153 1.37023 153.98 2.09385 154.69 3.03647C155.4 3.96956 155.79 5.07404 155.86 6.33087L155.88 6.59747H151.43L151.4 6.41656C151.33 5.8548 151.11 5.36921 150.74 4.96931C150.37 4.56941 149.89 4.26473 149.29 4.04574C148.7 3.82674 148.01 3.72201 147.23 3.72201C146.45 3.72201 145.73 3.82674 145.15 4.04574C144.57 4.26473 144.12 4.56941 143.81 4.95979C143.5 5.35016 143.35 5.79767 143.35 6.3023V6.32135C143.35 7.00689 143.65 7.5496 144.26 7.96855C144.86 8.37796 145.81 8.71121 147.1 8.95877L149.49 9.4158C151.06 9.71096 152.35 10.1299 153.37 10.6536C154.38 11.1773 155.13 11.8437 155.61 12.6435C156.09 13.4433 156.34 14.405 156.34 15.519V15.538C156.34 16.9186 155.98 18.1088 155.25 19.1181C154.53 20.1274 153.48 20.9081 152.13 21.4508C150.78 21.9935 149.14 22.2792 147.25 22.2792L147.23 22.2887Z" fill="url(#paint0_linear_357_3962)"/>
<defs>
<linearGradient id="paint0_linear_357_3962" x1="0" y1="11.1773" x2="156.33" y2="11.1773" gradientUnits="userSpaceOnUse">
<stop stop-color="#F4D68E"/>
<stop offset="0.23" stop-color="#EACD8A"/>
<stop offset="0.41" stop-color="#FAECAF"/>
<stop offset="0.59" stop-color="#FAECAE"/>
<stop offset="0.77" stop-color="#FBF8D0"/>
<stop offset="1" stop-color="#FAEDB3"/>
</linearGradient>
</defs>
</svg>
