<svg width="263" height="24" viewBox="0 0 263 24" fill="none" xmlns="http://www.w3.org/2000/svg">
<path d="M0 22.94V0.389998H4.72V9.55H14.88V0.389998H19.6V22.94H14.88V13.46H4.72V22.94H0ZM33.52 23.33C31.29 23.33 29.36 22.86 27.73 21.92C26.1 20.98 24.84 19.63 23.96 17.89C23.07 16.15 22.63 14.08 22.63 11.68V11.65C22.63 9.25 23.08 7.19 23.97 5.45C24.86 3.71 26.12 2.37 27.75 1.43C29.38 0.489998 31.3 0.0199979 33.52 0.0199979C35.74 0.0199979 37.68 0.489998 39.3 1.44C40.92 2.39 42.18 3.73 43.07 5.46C43.95 7.19 44.4 9.26 44.4 11.66V11.69C44.4 14.09 43.96 16.15 43.07 17.89C42.18 19.63 40.93 20.97 39.31 21.92C37.69 22.87 35.76 23.34 33.52 23.34V23.33ZM33.52 19.33C34.77 19.33 35.85 19.02 36.75 18.38C37.65 17.75 38.35 16.86 38.84 15.72C39.33 14.57 39.57 13.23 39.57 11.67V11.64C39.57 10.08 39.32 8.72 38.83 7.58C38.33 6.43 37.63 5.55 36.73 4.93C35.82 4.31 34.76 4 33.53 4C32.3 4 31.23 4.31 30.32 4.93C29.41 5.55 28.7 6.43 28.21 7.57C27.71 8.71 27.47 10.07 27.47 11.64V11.67C27.47 13.23 27.72 14.59 28.21 15.73C28.7 16.88 29.41 17.76 30.31 18.39C31.21 19.02 32.29 19.33 33.53 19.33H33.52ZM47.42 22.94V0.389998H52.87L59.28 16.59H59.37L65.77 0.389998H71.24V22.94H67.02V7.7H64.85L69.57 1.01L60.82 22.93H57.85L49.09 1.02L53.81 7.71H51.62V22.94H47.42ZM74.98 22.94V0.389998H89.92V4.28H79.7V9.69H89.34V13.39H79.7V19.05H89.92V22.94H74.98ZM101.56 23.33C99.78 23.33 98.22 23.07 96.9 22.54C95.58 22.01 94.52 21.26 93.76 20.27C93 19.28 92.57 18.1 92.49 16.72L92.47 16.47H96.92L96.95 16.64C97.05 17.22 97.32 17.73 97.74 18.15C98.16 18.57 98.71 18.9 99.39 19.13C100.07 19.36 100.83 19.48 101.69 19.48C102.55 19.48 103.32 19.36 103.95 19.13C104.58 18.9 105.07 18.56 105.41 18.13C105.75 17.7 105.93 17.2 105.93 16.62V16.6C105.93 15.84 105.63 15.24 105.03 14.81C104.43 14.38 103.43 14.02 102.04 13.74L99.66 13.26C97.44 12.82 95.77 12.07 94.64 11C93.51 9.93 92.94 8.55 92.94 6.85V6.83C92.94 5.45 93.32 4.26 94.06 3.24C94.8 2.22 95.81 1.42 97.11 0.849998C98.4 0.279998 99.88 -0.0100021 101.55 -0.0100021C103.22 -0.0100021 104.79 0.259998 106.06 0.809998C107.33 1.36 108.31 2.12 109.02 3.11C109.73 4.09 110.12 5.25 110.19 6.57L110.21 6.85H105.76L105.73 6.66C105.66 6.07 105.44 5.56 105.07 5.14C104.7 4.72 104.22 4.4 103.62 4.17C103.03 3.94 102.34 3.83 101.56 3.83C100.78 3.83 100.06 3.94 99.48 4.17C98.9 4.4 98.45 4.72 98.14 5.13C97.83 5.54 97.68 6.01 97.68 6.54V6.56C97.68 7.28 97.98 7.85 98.59 8.29C99.19 8.72 100.14 9.07 101.43 9.33L103.82 9.81C105.39 10.12 106.68 10.56 107.7 11.11C108.71 11.66 109.46 12.36 109.94 13.2C110.42 14.04 110.67 15.05 110.67 16.22V16.24C110.67 17.69 110.31 18.94 109.58 20C108.86 21.06 107.81 21.88 106.46 22.45C105.11 23.02 103.47 23.32 101.58 23.32L101.56 23.33ZM119.86 22.94V0.389998H134.63V4.28H124.58V10.33H133.75V14.06H124.58V22.94H119.86ZM147.58 23.33C145.35 23.33 143.42 22.86 141.79 21.92C140.16 20.98 138.9 19.63 138.02 17.89C137.13 16.15 136.69 14.08 136.69 11.68V11.65C136.69 9.25 137.14 7.19 138.03 5.45C138.92 3.71 140.18 2.37 141.81 1.43C143.44 0.489998 145.36 0.0199979 147.58 0.0199979C149.8 0.0199979 151.74 0.489998 153.36 1.44C154.98 2.39 156.24 3.73 157.13 5.46C158.01 7.19 158.46 9.26 158.46 11.66V11.69C158.46 14.09 158.02 16.15 157.13 17.89C156.24 19.63 154.99 20.97 153.37 21.92C151.75 22.87 149.82 23.34 147.58 23.34V23.33ZM147.58 19.33C148.83 19.33 149.91 19.02 150.81 18.38C151.71 17.75 152.41 16.86 152.9 15.72C153.39 14.57 153.63 13.23 153.63 11.67V11.64C153.63 10.08 153.38 8.72 152.89 7.58C152.39 6.43 151.69 5.55 150.79 4.93C149.88 4.31 148.82 4 147.59 4C146.36 4 145.29 4.31 144.38 4.93C143.47 5.55 142.76 6.43 142.27 7.57C141.77 8.71 141.53 10.07 141.53 11.64V11.67C141.53 13.23 141.78 14.59 142.27 15.73C142.76 16.88 143.47 17.76 144.37 18.39C145.27 19.02 146.35 19.33 147.59 19.33H147.58ZM161.48 22.94V0.389998H170.79C172.48 0.389998 173.92 0.679998 175.13 1.26C176.34 1.84 177.25 2.66 177.9 3.74C178.54 4.81 178.86 6.1 178.86 7.62V7.65C178.86 9.14 178.49 10.46 177.76 11.61C177.03 12.76 176.03 13.58 174.78 14.07L179.53 22.95H174.17L169.98 14.79H166.2V22.95H161.48V22.94ZM166.2 11.19H170.28C171.45 11.19 172.36 10.88 173.03 10.25C173.7 9.63 174.03 8.76 174.03 7.66V7.63C174.03 6.55 173.68 5.69 172.99 5.05C172.3 4.41 171.37 4.1 170.22 4.1H166.2V11.19ZM196.53 23.33C194.75 23.33 193.19 23.07 191.87 22.54C190.55 22.01 189.49 21.26 188.73 20.27C187.97 19.28 187.54 18.1 187.46 16.72L187.44 16.47H191.89L191.92 16.64C192.02 17.22 192.29 17.73 192.71 18.15C193.13 18.57 193.68 18.9 194.36 19.13C195.04 19.36 195.8 19.48 196.66 19.48C197.52 19.48 198.29 19.36 198.92 19.13C199.55 18.9 200.04 18.56 200.38 18.13C200.72 17.7 200.9 17.2 200.9 16.62V16.6C200.9 15.84 200.6 15.24 200 14.81C199.4 14.38 198.4 14.02 197.01 13.74L194.63 13.26C192.41 12.82 190.74 12.07 189.61 11C188.48 9.93 187.91 8.55 187.91 6.85V6.83C187.91 5.45 188.29 4.26 189.03 3.24C189.77 2.22 190.78 1.42 192.08 0.849998C193.37 0.279998 194.85 -0.0100021 196.52 -0.0100021C198.19 -0.0100021 199.76 0.259998 201.03 0.809998C202.3 1.36 203.28 2.12 203.99 3.11C204.7 4.09 205.09 5.25 205.16 6.57L205.18 6.85H200.73L200.7 6.66C200.63 6.07 200.41 5.56 200.04 5.14C199.67 4.72 199.19 4.4 198.59 4.17C198 3.94 197.31 3.83 196.53 3.83C195.75 3.83 195.03 3.94 194.45 4.17C193.87 4.4 193.42 4.72 193.11 5.13C192.8 5.54 192.65 6.01 192.65 6.54V6.56C192.65 7.28 192.95 7.85 193.56 8.29C194.16 8.72 195.11 9.07 196.4 9.33L198.79 9.81C200.36 10.12 201.65 10.56 202.67 11.11C203.68 11.66 204.43 12.36 204.91 13.2C205.39 14.04 205.64 15.05 205.64 16.22V16.24C205.64 17.69 205.28 18.94 204.55 20C203.83 21.06 202.78 21.88 201.43 22.45C200.08 23.02 198.44 23.32 196.55 23.32L196.53 23.33ZM206.59 22.94L214.45 0.389998H218.62V4.77H217.18L211.54 22.94H206.59ZM210.83 17.47L211.99 13.94H222.51L223.67 17.47H210.84H210.83ZM222.91 22.94L217.29 4.77V0.389998H220.02L227.88 22.94H222.91ZM230.19 22.94V0.389998H234.91V19.05H244.77V22.94H230.19ZM247.56 22.94V0.389998H262.5V4.28H252.28V9.69H261.92V13.39H252.28V19.05H262.5V22.94H247.56Z" fill="url(#paint0_linear_404_64)"/>
<defs>
<linearGradient id="paint0_linear_404_64" x1="0" y1="11.66" x2="262.481" y2="11.66" gradientUnits="userSpaceOnUse">
<stop stop-color="#F4D68E"/>
<stop offset="0.23" stop-color="#EACD8A"/>
<stop offset="0.41" stop-color="#FAECAF"/>
<stop offset="0.59" stop-color="#FAECAE"/>
<stop offset="0.77" stop-color="#FBF8D0"/>
<stop offset="1" stop-color="#FAEDB3"/>
</linearGradient>
</defs>
</svg>
