<svg width="279" height="24" viewBox="0 0 279 24" fill="none" xmlns="http://www.w3.org/2000/svg">
<path d="M10.89 23.33C8.66 23.33 6.73 22.86 5.1 21.92C3.47 20.98 2.21 19.63 1.33 17.89C0.44 16.15 0 14.08 0 11.68V11.65C0 9.24999 0.45 7.18999 1.34 5.44999C2.23 3.70999 3.49 2.36999 5.12 1.42999C6.75 0.48999 8.67 0.0199902 10.89 0.0199902C13.11 0.0199902 15.05 0.48999 16.67 1.43999C18.29 2.38999 19.55 3.72999 20.44 5.45999C21.32 7.18999 21.77 9.25999 21.77 11.66V11.69C21.77 14.09 21.33 16.15 20.44 17.89C19.55 19.63 18.3 20.97 16.68 21.92C15.06 22.87 13.13 23.34 10.89 23.34V23.33ZM10.89 19.33C12.14 19.33 13.21 19.02 14.12 18.38C15.02 17.75 15.72 16.86 16.21 15.72C16.7 14.57 16.94 13.23 16.94 11.67V11.64C16.94 10.08 16.69 8.71999 16.2 7.57999C15.7 6.42999 15 5.54999 14.1 4.92999C13.19 4.30999 12.13 3.99999 10.9 3.99999C9.67 3.99999 8.6 4.30999 7.69 4.92999C6.78 5.54999 6.07 6.42999 5.58 7.56999C5.08 8.70999 4.84 10.07 4.84 11.64V11.67C4.84 13.23 5.09 14.59 5.58 15.73C6.07 16.88 6.78 17.76 7.68 18.39C8.58 19.02 9.66 19.33 10.9 19.33H10.89ZM34.25 23.33C32.32 23.33 30.65 22.98 29.23 22.29C27.81 21.6 26.72 20.62 25.95 19.36C25.18 18.1 24.79 16.64 24.79 14.97V0.38999H29.51V14.55C29.51 15.52 29.69 16.36 30.06 17.07C30.43 17.78 30.97 18.34 31.67 18.73C32.37 19.13 33.23 19.32 34.24 19.32C35.25 19.32 36.11 19.12 36.81 18.73C37.51 18.33 38.05 17.78 38.41 17.07C38.77 16.36 38.96 15.52 38.96 14.55V0.38999H43.68V14.97C43.68 16.64 43.3 18.1 42.53 19.35C41.76 20.61 40.68 21.58 39.26 22.28C37.85 22.98 36.17 23.33 34.24 23.33H34.25ZM47.44 22.94V0.38999H56.75C58.44 0.38999 59.88 0.67999 61.09 1.25999C62.3 1.83999 63.21 2.65999 63.86 3.73999C64.5 4.80999 64.82 6.09999 64.82 7.61999V7.64999C64.82 9.13999 64.45 10.46 63.72 11.61C62.99 12.76 61.99 13.58 60.74 14.07L65.49 22.95H60.13L55.94 14.79H52.16V22.95H47.44V22.94ZM52.16 11.19H56.24C57.41 11.19 58.32 10.88 58.99 10.25C59.66 9.62999 59.99 8.75999 59.99 7.65999V7.62999C59.99 6.54999 59.64 5.68999 58.95 5.04999C58.26 4.40999 57.33 4.09999 56.18 4.09999H52.16V11.19ZM72.81 22.94L80.67 0.38999H84.84V4.76999H83.4L77.76 22.94H72.81ZM77.05 17.47L78.21 13.94H88.73L89.89 17.47H77.06H77.05ZM89.12 22.94L83.5 4.76999V0.38999H86.23L94.09 22.94H89.12ZM96.41 22.94V0.38999H105.02C107.28 0.38999 109.21 0.81999 110.81 1.68999C112.41 2.54999 113.64 3.81999 114.49 5.47999C115.34 7.13999 115.77 9.16999 115.77 11.55V11.58C115.77 13.97 115.35 16.01 114.5 17.7C113.65 19.4 112.42 20.7 110.82 21.59C109.22 22.49 107.28 22.93 105.02 22.93H96.41V22.94ZM101.12 19.03H104.45C105.86 19.03 107.04 18.75 108 18.19C108.96 17.63 109.7 16.79 110.2 15.69C110.7 14.59 110.95 13.22 110.95 11.6V11.57C110.95 10.01 110.69 8.67999 110.18 7.59999C109.67 6.51999 108.93 5.69999 107.96 5.13999C106.99 4.57999 105.82 4.29999 104.44 4.29999H101.11V19.03H101.12ZM124.12 22.94L116.59 0.38999H121.81L126.97 18.11H127.06L132.2 0.38999H137.43L129.88 22.94H124.11H124.12ZM135.48 22.94L143.34 0.38999H147.51V4.76999H146.07L140.43 22.94H135.48ZM139.72 17.47L140.88 13.94H151.4L152.56 17.47H139.73H139.72ZM151.8 22.94L146.18 4.76999V0.38999H148.91L156.77 22.94H151.8ZM159.08 22.94V0.38999H163.2L175.45 18.03L171.5 15.05H173.48V0.38999H178.18V22.94H174.09L161.81 5.20999L165.76 8.18999H163.78V22.94H159.08ZM187.33 22.94V4.27999H180.8V0.38999H198.58V4.27999H192.05V22.94H187.33ZM196.7 22.94L204.56 0.38999H208.73V4.76999H207.29L201.65 22.94H196.7ZM200.94 17.47L202.1 13.94H212.62L213.78 17.47H200.95H200.94ZM213.02 22.94L207.4 4.76999V0.38999H210.13L217.99 22.94H213.02ZM229.36 23.33C227.67 23.33 226.16 23.06 224.82 22.53C223.48 22 222.34 21.23 221.4 20.22C220.46 19.21 219.74 17.98 219.24 16.52C218.74 15.06 218.49 13.42 218.49 11.59V11.57C218.49 9.14999 218.93 7.07999 219.8 5.35999C220.68 3.63999 221.92 2.30999 223.53 1.37999C225.14 0.44999 227.05 -0.0100098 229.25 -0.0100098C231.06 -0.0100098 232.66 0.30999 234.05 0.95999C235.43 1.60999 236.56 2.47999 237.43 3.58999C238.3 4.69999 238.86 5.95999 239.11 7.37999L239.16 7.60999H234.41L234.36 7.43999C233.98 6.35999 233.36 5.50999 232.48 4.89999C231.6 4.28999 230.53 3.98999 229.26 3.98999C227.99 3.98999 226.96 4.28999 226.06 4.87999C225.16 5.46999 224.49 6.32999 224.01 7.45999C223.54 8.57999 223.3 9.93999 223.3 11.54V11.56C223.3 12.77 223.44 13.85 223.72 14.82C224 15.78 224.41 16.6 224.95 17.27C225.49 17.94 226.13 18.45 226.89 18.8C227.64 19.15 228.49 19.33 229.43 19.33C230.45 19.33 231.35 19.14 232.13 18.76C232.91 18.38 233.53 17.84 233.99 17.15C234.45 16.46 234.69 15.65 234.72 14.72L234.74 14.41H229.6V10.88H239.35V13.47C239.35 15 239.12 16.38 238.67 17.59C238.22 18.8 237.56 19.85 236.7 20.7C235.84 21.55 234.79 22.21 233.55 22.65C232.31 23.1 230.91 23.32 229.35 23.32L229.36 23.33ZM242.47 22.94V0.38999H257.41V4.27999H247.19V9.68999H256.83V13.39H247.19V19.05H257.41V22.94H242.47ZM269.05 23.33C267.27 23.33 265.71 23.07 264.39 22.54C263.07 22.01 262.01 21.26 261.25 20.27C260.49 19.28 260.06 18.1 259.98 16.72L259.96 16.47H264.41L264.44 16.64C264.54 17.22 264.81 17.73 265.23 18.15C265.65 18.57 266.2 18.9 266.88 19.13C267.56 19.36 268.32 19.48 269.18 19.48C270.04 19.48 270.81 19.36 271.44 19.13C272.07 18.9 272.56 18.56 272.9 18.13C273.24 17.7 273.42 17.2 273.42 16.62V16.6C273.42 15.84 273.12 15.24 272.52 14.81C271.92 14.38 270.92 14.02 269.53 13.74L267.15 13.26C264.93 12.82 263.26 12.07 262.13 11C261 9.92999 260.43 8.54999 260.43 6.84999V6.82999C260.43 5.44999 260.81 4.25999 261.55 3.23999C262.29 2.21999 263.3 1.41999 264.6 0.84999C265.89 0.27999 267.37 -0.0100098 269.04 -0.0100098C270.71 -0.0100098 272.28 0.25999 273.55 0.80999C274.82 1.35999 275.8 2.11999 276.51 3.10999C277.22 4.08999 277.61 5.24999 277.68 6.56999L277.7 6.84999H273.25L273.22 6.65999C273.15 6.06999 272.93 5.55999 272.56 5.13999C272.19 4.71999 271.71 4.39999 271.11 4.16999C270.52 3.93999 269.83 3.82999 269.05 3.82999C268.27 3.82999 267.55 3.93999 266.97 4.16999C266.39 4.39999 265.94 4.71999 265.63 5.12999C265.32 5.53999 265.17 6.00999 265.17 6.53999V6.55999C265.17 7.27999 265.47 7.84999 266.08 8.28999C266.68 8.71999 267.63 9.06999 268.92 9.32999L271.31 9.80999C272.88 10.12 274.17 10.56 275.19 11.11C276.2 11.66 276.95 12.36 277.43 13.2C277.91 14.04 278.16 15.05 278.16 16.22V16.24C278.16 17.69 277.8 18.94 277.07 20C276.35 21.06 275.3 21.88 273.95 22.45C272.6 23.02 270.96 23.32 269.07 23.32L269.05 23.33Z" fill="url(#paint0_linear_357_4017)"/>
<defs>
<linearGradient id="paint0_linear_357_4017" x1="0" y1="11.66" x2="278.14" y2="11.66" gradientUnits="userSpaceOnUse">
<stop stop-color="#F4D68E"/>
<stop offset="0.23" stop-color="#EACD8A"/>
<stop offset="0.41" stop-color="#FAECAF"/>
<stop offset="0.59" stop-color="#FAECAE"/>
<stop offset="0.77" stop-color="#FBF8D0"/>
<stop offset="1" stop-color="#FAEDB3"/>
</linearGradient>
</defs>
</svg>
