<svg width="178" height="26" viewBox="0 0 178 26" fill="none" xmlns="http://www.w3.org/2000/svg">
<path d="M10.89 23.33C8.66 23.33 6.73 22.86 5.1 21.92C3.47 20.98 2.21 19.63 1.33 17.89C0.44 16.15 0 14.08 0 11.68V11.65C0 9.24999 0.45 7.18999 1.34 5.44999C2.23 3.70999 3.49 2.36999 5.12 1.42999C6.75 0.48999 8.67 0.0199902 10.89 0.0199902C13.11 0.0199902 15.05 0.48999 16.67 1.43999C18.29 2.38999 19.55 3.72999 20.44 5.45999C21.32 7.18999 21.77 9.25999 21.77 11.66V11.69C21.77 14.09 21.33 16.15 20.44 17.89C19.55 19.63 18.3 20.97 16.68 21.92C15.06 22.87 13.13 23.34 10.89 23.34V23.33ZM10.89 19.33C12.14 19.33 13.21 19.02 14.12 18.38C15.02 17.75 15.72 16.86 16.21 15.72C16.7 14.57 16.94 13.23 16.94 11.67V11.64C16.94 10.08 16.69 8.71999 16.2 7.57999C15.7 6.42999 15 5.54999 14.1 4.92999C13.19 4.30999 12.13 3.99999 10.9 3.99999C9.67 3.99999 8.6 4.30999 7.7 4.92999C6.79 5.54999 6.09 6.42999 5.59 7.56999C5.09 8.70999 4.84 10.07 4.84 11.64V11.67C4.84 13.23 5.09 14.59 5.58 15.73C6.07 16.88 6.78 17.76 7.68 18.39C8.58 19.02 9.66 19.33 10.9 19.33H10.89ZM16.52 25.05L9.54 15.21H14.04L21.01 25.05H16.53H16.52ZM34.25 23.33C32.32 23.33 30.65 22.98 29.23 22.29C27.81 21.6 26.72 20.62 25.95 19.36C25.18 18.1 24.79 16.64 24.79 14.97V0.38999H29.51V14.55C29.51 15.52 29.69 16.36 30.06 17.07C30.43 17.78 30.97 18.34 31.67 18.73C32.37 19.13 33.23 19.32 34.24 19.32C35.25 19.32 36.11 19.12 36.81 18.73C37.51 18.33 38.05 17.78 38.41 17.07C38.77 16.36 38.96 15.52 38.96 14.55V0.38999H43.68V14.97C43.68 16.64 43.3 18.1 42.53 19.35C41.76 20.61 40.68 21.58 39.26 22.28C37.85 22.98 36.17 23.33 34.24 23.33H34.25ZM47.44 22.94V0.38999H62.38V4.27999H52.16V9.68999H61.8V13.39H52.16V19.05H62.38V22.94H47.44ZM74.02 23.33C72.24 23.33 70.68 23.07 69.36 22.54C68.03 22.01 66.98 21.26 66.22 20.27C65.45 19.29 65.03 18.1 64.95 16.72L64.93 16.47H69.38L69.41 16.64C69.51 17.22 69.78 17.73 70.2 18.15C70.62 18.57 71.17 18.9 71.85 19.13C72.53 19.36 73.29 19.48 74.15 19.48C75.01 19.48 75.78 19.36 76.41 19.13C77.04 18.9 77.53 18.56 77.87 18.13C78.21 17.7 78.39 17.2 78.39 16.62V16.6C78.39 15.84 78.09 15.24 77.49 14.81C76.89 14.38 75.89 14.02 74.5 13.74L72.12 13.26C69.9 12.82 68.23 12.07 67.1 11C65.97 9.92999 65.4 8.54999 65.4 6.84999V6.82999C65.4 5.44999 65.78 4.25999 66.52 3.23999C67.26 2.21999 68.27 1.41999 69.57 0.84999C70.86 0.27999 72.34 -0.0100098 74.01 -0.0100098C75.68 -0.0100098 77.25 0.25999 78.52 0.80999C79.79 1.35999 80.77 2.11999 81.48 3.10999C82.19 4.08999 82.58 5.24999 82.65 6.56999L82.67 6.84999H78.22L78.19 6.65999C78.12 6.06999 77.9 5.55999 77.53 5.13999C77.16 4.71999 76.68 4.39999 76.08 4.16999C75.49 3.93999 74.8 3.82999 74.02 3.82999C73.24 3.82999 72.52 3.93999 71.94 4.16999C71.36 4.39999 70.91 4.71999 70.6 5.12999C70.29 5.53999 70.14 6.00999 70.14 6.53999V6.55999C70.14 7.27999 70.44 7.84999 71.05 8.28999C71.65 8.71999 72.6 9.06999 73.89 9.32999L76.28 9.80999C77.85 10.12 79.14 10.56 80.16 11.11C81.17 11.66 81.92 12.36 82.4 13.2C82.88 14.04 83.13 15.05 83.13 16.22V16.24C83.13 17.69 82.77 18.94 82.04 20C81.32 21.06 80.27 21.87 78.92 22.45C77.57 23.03 75.93 23.32 74.04 23.32L74.02 23.33ZM90.75 22.94V4.27999H84.22V0.38999H102V4.27999H95.47V22.94H90.75ZM104.61 22.94V0.38999H109.33V22.94H104.61ZM123.25 23.33C121.02 23.33 119.09 22.86 117.46 21.92C115.83 20.98 114.57 19.63 113.69 17.89C112.8 16.15 112.36 14.08 112.36 11.68V11.65C112.36 9.24999 112.81 7.18999 113.7 5.44999C114.59 3.70999 115.85 2.36999 117.48 1.42999C119.11 0.48999 121.03 0.0199902 123.25 0.0199902C125.47 0.0199902 127.41 0.48999 129.03 1.43999C130.65 2.38999 131.91 3.72999 132.8 5.45999C133.68 7.18999 134.13 9.25999 134.13 11.66V11.69C134.13 14.09 133.69 16.15 132.8 17.89C131.91 19.63 130.66 20.97 129.04 21.92C127.42 22.87 125.49 23.34 123.25 23.34V23.33ZM123.25 19.33C124.5 19.33 125.58 19.02 126.48 18.38C127.38 17.75 128.08 16.86 128.57 15.72C129.06 14.57 129.3 13.23 129.3 11.67V11.64C129.3 10.08 129.05 8.71999 128.56 7.57999C128.06 6.42999 127.36 5.54999 126.46 4.92999C125.55 4.30999 124.49 3.99999 123.26 3.99999C122.03 3.99999 120.96 4.30999 120.05 4.92999C119.14 5.54999 118.43 6.42999 117.94 7.56999C117.44 8.70999 117.2 10.07 117.2 11.64V11.67C117.2 13.23 117.45 14.59 117.94 15.73C118.43 16.88 119.14 17.76 120.04 18.39C120.94 19.02 122.02 19.33 123.26 19.33H123.25ZM137.16 22.94V0.38999H141.28L153.53 18.03L149.58 15.05H151.56V0.38999H156.26V22.94H152.17L139.89 5.20999L143.84 8.18999H141.86V22.94H137.16ZM168.25 23.33C166.47 23.33 164.91 23.07 163.59 22.54C162.26 22.01 161.21 21.26 160.45 20.27C159.68 19.29 159.26 18.1 159.18 16.72L159.16 16.47H163.61L163.64 16.64C163.74 17.22 164.01 17.73 164.43 18.15C164.85 18.57 165.4 18.9 166.08 19.13C166.76 19.36 167.52 19.48 168.38 19.48C169.24 19.48 170.01 19.36 170.64 19.13C171.27 18.9 171.76 18.56 172.1 18.13C172.44 17.7 172.62 17.2 172.62 16.62V16.6C172.62 15.84 172.32 15.24 171.72 14.81C171.12 14.38 170.12 14.02 168.73 13.74L166.35 13.26C164.13 12.82 162.46 12.07 161.33 11C160.2 9.92999 159.63 8.54999 159.63 6.84999V6.82999C159.63 5.44999 160.01 4.25999 160.75 3.23999C161.49 2.21999 162.5 1.41999 163.8 0.84999C165.09 0.27999 166.57 -0.0100098 168.24 -0.0100098C169.91 -0.0100098 171.48 0.25999 172.75 0.80999C174.02 1.35999 175 2.11999 175.71 3.10999C176.42 4.08999 176.81 5.24999 176.88 6.56999L176.9 6.84999H172.45L172.42 6.65999C172.35 6.06999 172.13 5.55999 171.76 5.13999C171.39 4.71999 170.91 4.39999 170.31 4.16999C169.72 3.93999 169.03 3.82999 168.25 3.82999C167.47 3.82999 166.75 3.93999 166.17 4.16999C165.59 4.39999 165.14 4.71999 164.83 5.12999C164.52 5.53999 164.37 6.00999 164.37 6.53999V6.55999C164.37 7.27999 164.67 7.84999 165.28 8.28999C165.88 8.71999 166.83 9.06999 168.12 9.32999L170.51 9.80999C172.08 10.12 173.37 10.56 174.39 11.11C175.4 11.66 176.15 12.36 176.63 13.2C177.11 14.04 177.36 15.05 177.36 16.22V16.24C177.36 17.69 177 18.94 176.27 20C175.55 21.06 174.5 21.87 173.15 22.45C171.8 23.03 170.16 23.32 168.27 23.32L168.25 23.33Z" fill="url(#paint0_linear_357_4109)"/>
<defs>
<linearGradient id="paint0_linear_357_4109" x1="0" y1="12.5146" x2="177.347" y2="12.5146" gradientUnits="userSpaceOnUse">
<stop stop-color="#F4D68E"/>
<stop offset="0.23" stop-color="#EACD8A"/>
<stop offset="0.41" stop-color="#FAECAF"/>
<stop offset="0.59" stop-color="#FAECAE"/>
<stop offset="0.77" stop-color="#FBF8D0"/>
<stop offset="1" stop-color="#FAEDB3"/>
</linearGradient>
</defs>
</svg>
