<svg width="367" height="24" viewBox="0 0 367 24" fill="none" xmlns="http://www.w3.org/2000/svg">
<path d="M4.98 22.95L-1 0.4H3.91L7.47 16.56H7.56L11.72 0.4H15.86L20.02 16.56H20.11L23.67 0.4H28.58L22.6 22.95H17.99L13.85 7.86H13.76L9.6 22.95H4.99H4.98ZM31.11 22.95V0.4H35.83V9.56H45.99V0.4H50.71V22.95H45.99V13.47H35.83V22.95H31.11ZM53.02 22.95L60.88 0.4H65.05V4.78H63.61L57.97 22.95H53.02ZM57.25 17.48L58.41 13.95H68.93L70.09 17.48H57.26H57.25ZM69.33 22.95L63.71 4.78V0.4H66.44L74.3 22.95H69.33ZM78.95 22.95V4.29H72.42V0.4H90.2V4.29H83.67V22.95H78.95ZM109.31 23.34C107.08 23.34 105.15 22.87 103.52 21.93C101.89 20.99 100.63 19.64 99.75 17.9C98.86 16.16 98.42 14.09 98.42 11.69V11.66C98.42 9.26 98.87 7.2 99.76 5.46C100.65 3.72 101.91 2.38 103.54 1.44C105.17 0.5 107.09 0.03 109.31 0.03C111.53 0.03 113.47 0.5 115.09 1.45C116.71 2.4 117.97 3.74 118.86 5.47C119.74 7.2 120.19 9.27 120.19 11.67V11.7C120.19 14.1 119.75 16.16 118.86 17.9C117.97 19.64 116.72 20.98 115.1 21.93C113.48 22.88 111.55 23.35 109.31 23.35V23.34ZM109.31 19.34C110.56 19.34 111.64 19.03 112.54 18.39C113.44 17.76 114.14 16.87 114.63 15.73C115.12 14.58 115.36 13.24 115.36 11.68V11.65C115.36 10.09 115.11 8.73 114.62 7.59C114.12 6.44 113.42 5.56 112.52 4.94C111.61 4.32 110.55 4.01 109.32 4.01C108.09 4.01 107.02 4.32 106.11 4.94C105.2 5.56 104.49 6.44 104 7.58C103.5 8.72 103.26 10.08 103.26 11.65V11.68C103.26 13.24 103.51 14.6 104 15.74C104.49 16.89 105.2 17.77 106.1 18.4C107 19.03 108.08 19.34 109.32 19.34H109.31ZM132.67 23.34C130.74 23.34 129.07 22.99 127.65 22.3C126.23 21.61 125.14 20.63 124.37 19.37C123.6 18.11 123.21 16.65 123.21 14.98V0.4H127.93V14.56C127.93 15.53 128.11 16.37 128.48 17.08C128.85 17.79 129.39 18.35 130.09 18.74C130.79 19.14 131.65 19.33 132.66 19.33C133.67 19.33 134.53 19.13 135.23 18.74C135.93 18.34 136.47 17.79 136.83 17.08C137.19 16.37 137.38 15.53 137.38 14.56V0.4H142.1V14.98C142.1 16.65 141.72 18.11 140.95 19.36C140.18 20.62 139.1 21.59 137.68 22.29C136.27 22.99 134.59 23.34 132.66 23.34H132.67ZM145.86 22.95V0.4H155.17C156.86 0.4 158.3 0.69 159.51 1.27C160.72 1.85 161.63 2.67 162.28 3.75C162.92 4.82 163.24 6.11 163.24 7.63V7.66C163.24 9.15 162.87 10.47 162.14 11.62C161.41 12.77 160.41 13.59 159.16 14.08L163.91 22.96H158.55L154.36 14.8H150.58V22.96H145.86V22.95ZM150.58 11.2H154.66C155.83 11.2 156.74 10.89 157.41 10.26C158.08 9.64 158.41 8.77 158.41 7.67V7.64C158.41 6.56 158.06 5.7 157.37 5.06C156.68 4.42 155.75 4.11 154.6 4.11H150.58V11.2ZM182.7 23.34C180.5 23.34 178.6 22.87 176.99 21.93C175.38 20.99 174.14 19.65 173.26 17.91C172.38 16.17 171.95 14.09 171.95 11.66V11.64C171.95 9.21 172.39 7.13 173.26 5.4C174.13 3.67 175.38 2.33 176.99 1.4C178.6 0.47 180.5 0 182.7 0C184.52 0 186.15 0.35 187.58 1.06C189.01 1.77 190.15 2.74 191.02 3.98C191.88 5.22 192.39 6.64 192.54 8.23L192.56 8.39H187.95L187.89 8.12C187.71 7.29 187.39 6.56 186.94 5.95C186.48 5.34 185.9 4.86 185.19 4.51C184.48 4.17 183.66 3.99 182.72 3.99C181.51 3.99 180.46 4.3 179.58 4.92C178.69 5.54 178.01 6.42 177.53 7.55C177.05 8.69 176.8 10.04 176.8 11.61V11.63C176.8 13.21 177.04 14.58 177.53 15.73C178.01 16.88 178.7 17.77 179.59 18.39C180.48 19.01 181.52 19.32 182.72 19.32C183.63 19.32 184.43 19.15 185.14 18.82C185.85 18.49 186.44 18.01 186.92 17.37C187.4 16.74 187.74 15.98 187.94 15.08L187.97 14.92H192.58L192.56 15.09C192.41 16.68 191.91 18.1 191.04 19.34C190.17 20.58 189.02 21.55 187.59 22.25C186.16 22.95 184.54 23.3 182.71 23.3L182.7 23.34ZM195.47 22.95V0.4H200.19V19.06H210.05V22.95H195.47ZM212.84 22.95V0.4H217.56V22.95H212.84ZM221.31 22.95V0.4H236.25V4.29H226.03V9.7H235.67V13.4H226.03V19.06H236.25V22.95H221.31ZM239.66 22.95V0.4H243.78L256.03 18.04L252.08 15.06H254.06V0.4H258.76V22.95H254.67L242.39 5.22L246.34 8.2H244.36V22.95H239.66ZM267.91 22.95V4.29H261.38V0.4H279.16V4.29H272.63V22.95H267.91ZM290 23.34C288.22 23.34 286.66 23.08 285.34 22.55C284.02 22.02 282.96 21.27 282.2 20.28C281.44 19.29 281.01 18.11 280.93 16.73L280.91 16.48H285.36L285.39 16.65C285.49 17.23 285.76 17.74 286.18 18.16C286.6 18.58 287.15 18.91 287.83 19.14C288.51 19.37 289.27 19.49 290.13 19.49C290.99 19.49 291.76 19.37 292.39 19.14C293.02 18.91 293.51 18.57 293.85 18.14C294.19 17.71 294.37 17.21 294.37 16.63V16.61C294.37 15.85 294.07 15.25 293.47 14.82C292.87 14.39 291.87 14.03 290.48 13.75L288.1 13.27C285.88 12.83 284.21 12.08 283.08 11.01C281.95 9.94 281.38 8.56 281.38 6.86V6.84C281.38 5.46 281.76 4.27 282.5 3.25C283.24 2.23 284.25 1.43 285.55 0.86C286.84 0.29 288.32 0 289.99 0C291.66 0 293.23 0.27 294.5 0.82C295.77 1.37 296.75 2.13 297.46 3.12C298.17 4.1 298.56 5.26 298.63 6.58L298.65 6.86H294.2L294.17 6.67C294.1 6.08 293.88 5.57 293.51 5.15C293.14 4.73 292.66 4.41 292.06 4.18C291.47 3.95 290.78 3.84 290 3.84C289.22 3.84 288.5 3.95 287.92 4.18C287.34 4.41 286.89 4.73 286.58 5.14C286.27 5.55 286.12 6.02 286.12 6.55V6.57C286.12 7.29 286.42 7.86 287.03 8.3C287.63 8.73 288.58 9.08 289.87 9.34L292.26 9.82C293.83 10.13 295.12 10.57 296.14 11.12C297.15 11.67 297.9 12.37 298.38 13.21C298.86 14.05 299.11 15.06 299.11 16.23V16.25C299.11 17.7 298.75 18.95 298.02 20.01C297.3 21.07 296.25 21.89 294.9 22.46C293.55 23.03 291.91 23.33 290.02 23.33L290 23.34ZM316.53 23.34C314.75 23.34 313.19 23.08 311.87 22.55C310.55 22.02 309.49 21.27 308.73 20.28C307.97 19.29 307.54 18.11 307.46 16.73L307.44 16.48H311.89L311.92 16.65C312.02 17.23 312.29 17.74 312.71 18.16C313.13 18.58 313.68 18.91 314.36 19.14C315.04 19.37 315.8 19.49 316.66 19.49C317.52 19.49 318.29 19.37 318.92 19.14C319.55 18.91 320.04 18.57 320.38 18.14C320.72 17.71 320.9 17.21 320.9 16.63V16.61C320.9 15.85 320.6 15.25 320 14.82C319.4 14.39 318.4 14.03 317.01 13.75L314.63 13.27C312.41 12.83 310.74 12.08 309.61 11.01C308.48 9.94 307.91 8.56 307.91 6.86V6.84C307.91 5.46 308.29 4.27 309.03 3.25C309.77 2.23 310.78 1.43 312.08 0.86C313.37 0.29 314.85 0 316.52 0C318.19 0 319.76 0.27 321.03 0.82C322.3 1.37 323.28 2.13 323.99 3.12C324.7 4.1 325.09 5.26 325.16 6.58L325.18 6.86H320.73L320.7 6.67C320.63 6.08 320.41 5.57 320.04 5.15C319.67 4.73 319.19 4.41 318.59 4.18C318 3.95 317.31 3.84 316.53 3.84C315.75 3.84 315.03 3.95 314.45 4.18C313.87 4.41 313.42 4.73 313.11 5.14C312.8 5.55 312.65 6.02 312.65 6.55V6.57C312.65 7.29 312.95 7.86 313.56 8.3C314.16 8.73 315.11 9.08 316.4 9.34L318.79 9.82C320.36 10.13 321.65 10.57 322.67 11.12C323.68 11.67 324.43 12.37 324.91 13.21C325.39 14.05 325.64 15.06 325.64 16.23V16.25C325.64 17.7 325.28 18.95 324.55 20.01C323.83 21.07 322.78 21.89 321.43 22.46C320.08 23.03 318.44 23.33 316.55 23.33L316.53 23.34ZM326.59 22.95L334.45 0.4H338.62V4.78H337.18L331.54 22.95H326.59ZM330.83 17.48L331.99 13.95H342.51L343.67 17.48H330.84H330.83ZM342.91 22.95L337.29 4.78V0.4H340.02L347.88 22.95H342.91ZM353.47 22.95V14.53L345.63 0.41H350.72L355.78 10.03H355.89L360.94 0.41H366.05L358.19 14.53V22.95H353.47Z" fill="url(#paint0_linear_357_4063)"/>
<defs>
<linearGradient id="paint0_linear_357_4063" x1="-1" y1="11.67" x2="366.024" y2="11.67" gradientUnits="userSpaceOnUse">
<stop stop-color="#F4D68E"/>
<stop offset="0.23" stop-color="#EACD8A"/>
<stop offset="0.41" stop-color="#FAECAF"/>
<stop offset="0.59" stop-color="#FAECAE"/>
<stop offset="0.77" stop-color="#FBF8D0"/>
<stop offset="1" stop-color="#FAEDB3"/>
</linearGradient>
</defs>
</svg>
