<svg width="384" height="24" viewBox="0 0 384 24" fill="none" xmlns="http://www.w3.org/2000/svg">
<path d="M9.09 23.33C7.31 23.33 5.75 23.07 4.43 22.54C3.11 22.01 2.05 21.26 1.29 20.27C0.53 19.28 0.1 18.1 0.02 16.72L0 16.47H4.45L4.48 16.64C4.58 17.22 4.85 17.73 5.27 18.15C5.69 18.57 6.24 18.9 6.92 19.13C7.6 19.36 8.36 19.48 9.22 19.48C10.08 19.48 10.85 19.36 11.48 19.13C12.11 18.9 12.6 18.56 12.94 18.13C13.28 17.7 13.46 17.2 13.46 16.62V16.6C13.46 15.84 13.16 15.24 12.56 14.81C11.96 14.38 10.96 14.02 9.57 13.74L7.19 13.26C4.97 12.82 3.3 12.07 2.17 11C1.04 9.92999 0.47 8.54999 0.47 6.84999V6.82999C0.47 5.44999 0.85 4.25999 1.59 3.23999C2.33 2.21999 3.34 1.41999 4.64 0.84999C5.93 0.27999 7.41 -0.0100098 9.08 -0.0100098C10.75 -0.0100098 12.32 0.25999 13.59 0.80999C14.86 1.35999 15.84 2.11999 16.55 3.10999C17.26 4.08999 17.65 5.24999 17.72 6.56999L17.74 6.84999H13.29L13.26 6.65999C13.19 6.06999 12.97 5.55999 12.6 5.13999C12.23 4.71999 11.75 4.39999 11.15 4.16999C10.56 3.93999 9.87 3.82999 9.09 3.82999C8.31 3.82999 7.59 3.93999 7.01 4.16999C6.43 4.39999 5.98 4.71999 5.67 5.12999C5.36 5.53999 5.21 6.00999 5.21 6.53999V6.55999C5.21 7.27999 5.51 7.84999 6.12 8.28999C6.72 8.71999 7.67 9.06999 8.96 9.32999L11.35 9.80999C12.92 10.12 14.21 10.56 15.23 11.11C16.24 11.66 16.99 12.36 17.47 13.2C17.95 14.04 18.2 15.05 18.2 16.22V16.24C18.2 17.69 17.84 18.94 17.11 20C16.39 21.06 15.34 21.88 13.99 22.45C12.64 23.02 11 23.32 9.11 23.32L9.09 23.33ZM25.83 22.94V4.27999H19.3V0.38999H37.08V4.27999H30.55V22.94H25.83ZM35.2 22.94L43.06 0.38999H47.23V4.76999H45.79L40.15 22.94H35.2ZM39.44 17.47L40.6 13.94H51.12L52.28 17.47H39.45H39.44ZM51.52 22.94L45.9 4.76999V0.38999H48.63L56.49 22.94H51.52ZM67.86 23.33C66.17 23.33 64.66 23.06 63.32 22.53C61.98 22 60.84 21.23 59.9 20.22C58.96 19.21 58.24 17.98 57.74 16.52C57.24 15.06 56.99 13.42 56.99 11.59V11.57C56.99 9.14999 57.43 7.07999 58.3 5.35999C59.18 3.63999 60.42 2.30999 62.03 1.37999C63.64 0.44999 65.55 -0.0100098 67.75 -0.0100098C69.56 -0.0100098 71.16 0.30999 72.55 0.95999C73.93 1.60999 75.06 2.47999 75.93 3.58999C76.8 4.69999 77.36 5.95999 77.61 7.37999L77.66 7.60999H72.91L72.86 7.43999C72.48 6.35999 71.86 5.50999 70.98 4.89999C70.1 4.28999 69.03 3.98999 67.76 3.98999C66.49 3.98999 65.46 4.28999 64.56 4.87999C63.66 5.46999 62.99 6.32999 62.51 7.45999C62.04 8.57999 61.8 9.93999 61.8 11.54V11.56C61.8 12.77 61.94 13.85 62.22 14.82C62.5 15.78 62.91 16.6 63.45 17.27C63.99 17.94 64.63 18.45 65.39 18.8C66.14 19.15 66.99 19.33 67.93 19.33C68.95 19.33 69.85 19.14 70.63 18.76C71.41 18.38 72.03 17.84 72.49 17.15C72.95 16.46 73.19 15.65 73.22 14.72L73.24 14.41H68.1V10.88H77.85V13.47C77.85 15 77.62 16.38 77.17 17.59C76.72 18.8 76.06 19.85 75.2 20.7C74.34 21.55 73.29 22.21 72.05 22.65C70.81 23.1 69.41 23.32 67.85 23.32L67.86 23.33ZM80.97 22.94V0.38999H95.91V4.27999H85.69V9.68999H95.33V13.39H85.69V19.05H95.91V22.94H80.97ZM115.81 23.33C113.58 23.33 111.65 22.86 110.02 21.92C108.39 20.98 107.13 19.63 106.25 17.89C105.36 16.15 104.92 14.08 104.92 11.68V11.65C104.92 9.24999 105.37 7.18999 106.26 5.44999C107.15 3.70999 108.41 2.36999 110.04 1.42999C111.67 0.48999 113.59 0.0199902 115.81 0.0199902C118.03 0.0199902 119.97 0.48999 121.59 1.43999C123.21 2.38999 124.47 3.72999 125.36 5.45999C126.24 7.18999 126.69 9.25999 126.69 11.66V11.69C126.69 14.09 126.25 16.15 125.36 17.89C124.47 19.63 123.22 20.97 121.6 21.92C119.98 22.87 118.05 23.34 115.81 23.34V23.33ZM115.81 19.33C117.06 19.33 118.14 19.02 119.04 18.38C119.94 17.75 120.64 16.86 121.13 15.72C121.62 14.57 121.86 13.23 121.86 11.67V11.64C121.86 10.08 121.61 8.71999 121.12 7.57999C120.62 6.42999 119.92 5.54999 119.02 4.92999C118.11 4.30999 117.05 3.99999 115.82 3.99999C114.59 3.99999 113.52 4.30999 112.61 4.92999C111.7 5.54999 110.99 6.42999 110.5 7.56999C110 8.70999 109.76 10.07 109.76 11.64V11.67C109.76 13.23 110.01 14.59 110.5 15.73C110.99 16.88 111.7 17.76 112.6 18.39C113.5 19.02 114.58 19.33 115.82 19.33H115.81ZM129.72 22.94V0.38999H144.49V4.27999H134.44V10.33H143.61V14.06H134.44V22.94H129.72ZM158.36 22.94L152.38 0.38999H157.29L160.85 16.55H160.94L165.09 0.38999H169.23L173.39 16.55H173.48L177.04 0.38999H181.95L175.97 22.94H171.36L167.22 7.84999H167.13L162.97 22.94H158.36ZM193.88 23.33C191.65 23.33 189.72 22.86 188.09 21.92C186.46 20.98 185.2 19.63 184.32 17.89C183.43 16.15 182.99 14.08 182.99 11.68V11.65C182.99 9.24999 183.44 7.18999 184.33 5.44999C185.22 3.70999 186.48 2.36999 188.11 1.42999C189.74 0.48999 191.66 0.0199902 193.88 0.0199902C196.1 0.0199902 198.04 0.48999 199.66 1.43999C201.28 2.38999 202.54 3.72999 203.43 5.45999C204.31 7.18999 204.76 9.25999 204.76 11.66V11.69C204.76 14.09 204.32 16.15 203.43 17.89C202.54 19.63 201.29 20.97 199.67 21.92C198.05 22.87 196.12 23.34 193.88 23.34V23.33ZM193.88 19.33C195.13 19.33 196.21 19.02 197.11 18.38C198.01 17.75 198.71 16.86 199.2 15.72C199.69 14.57 199.93 13.23 199.93 11.67V11.64C199.93 10.08 199.68 8.71999 199.19 7.57999C198.69 6.42999 197.99 5.54999 197.09 4.92999C196.18 4.30999 195.12 3.99999 193.89 3.99999C192.66 3.99999 191.59 4.30999 190.68 4.92999C189.77 5.54999 189.06 6.42999 188.57 7.56999C188.07 8.70999 187.83 10.07 187.83 11.64V11.67C187.83 13.23 188.08 14.59 188.57 15.73C189.06 16.88 189.77 17.76 190.67 18.39C191.57 19.02 192.65 19.33 193.89 19.33H193.88ZM207.78 22.94V0.38999H217.09C218.78 0.38999 220.22 0.67999 221.43 1.25999C222.64 1.83999 223.55 2.65999 224.2 3.73999C224.84 4.80999 225.16 6.09999 225.16 7.61999V7.64999C225.16 9.13999 224.79 10.46 224.06 11.61C223.33 12.76 222.33 13.58 221.08 14.07L225.83 22.95H220.47L216.28 14.79H212.5V22.95H207.78V22.94ZM212.5 11.19H216.58C217.75 11.19 218.66 10.88 219.33 10.25C220 9.62999 220.33 8.75999 220.33 7.65999V7.62999C220.33 6.54999 219.98 5.68999 219.29 5.04999C218.6 4.40999 217.67 4.09999 216.52 4.09999H212.5V11.19ZM228.27 22.94V0.38999H232.99V22.94H228.27ZM232.8 16.28V10.7H233.1L241.36 0.38999H246.61L238.33 10.59H237.41L232.8 16.28ZM241.53 22.94L234.31 12.27L237.72 9.15999L247.19 22.94H241.53ZM260.27 22.94L254.28 0.38999H259.19L262.75 16.55H262.84L267 0.38999H271.14L275.3 16.55H275.39L278.95 0.38999H283.86L277.88 22.94H273.27L269.13 7.84999H269.04L264.88 22.94H260.27ZM286.39 22.94V0.38999H291.11V22.94H286.39ZM300.25 22.94V4.27999H293.72V0.38999H311.5V4.27999H304.97V22.94H300.25ZM314.11 22.94V0.38999H318.83V9.54999H328.99V0.38999H333.71V22.94H328.99V13.46H318.83V22.94H314.11ZM353.23 23.33C351.3 23.33 349.63 22.98 348.21 22.29C346.79 21.6 345.7 20.62 344.93 19.36C344.16 18.1 343.77 16.64 343.77 14.97V0.38999H348.49V14.55C348.49 15.52 348.67 16.36 349.04 17.07C349.41 17.78 349.95 18.34 350.65 18.73C351.35 19.13 352.21 19.32 353.22 19.32C354.23 19.32 355.09 19.12 355.79 18.73C356.49 18.33 357.03 17.78 357.39 17.07C357.75 16.36 357.94 15.52 357.94 14.55V0.38999H362.66V14.97C362.66 16.64 362.28 18.1 361.51 19.35C360.74 20.61 359.66 21.58 358.24 22.28C356.83 22.98 355.15 23.33 353.22 23.33H353.23ZM374.66 23.33C372.88 23.33 371.32 23.07 370 22.54C368.68 22.01 367.62 21.26 366.86 20.27C366.1 19.28 365.67 18.1 365.59 16.72L365.57 16.47H370.02L370.05 16.64C370.15 17.22 370.42 17.73 370.84 18.15C371.26 18.57 371.81 18.9 372.49 19.13C373.17 19.36 373.93 19.48 374.79 19.48C375.65 19.48 376.42 19.36 377.05 19.13C377.68 18.9 378.17 18.56 378.51 18.13C378.85 17.7 379.03 17.2 379.03 16.62V16.6C379.03 15.84 378.73 15.24 378.13 14.81C377.53 14.38 376.53 14.02 375.14 13.74L372.76 13.26C370.54 12.82 368.87 12.07 367.74 11C366.61 9.92999 366.04 8.54999 366.04 6.84999V6.82999C366.04 5.44999 366.42 4.25999 367.16 3.23999C367.9 2.21999 368.91 1.41999 370.21 0.84999C371.5 0.27999 372.98 -0.0100098 374.65 -0.0100098C376.32 -0.0100098 377.89 0.25999 379.16 0.80999C380.43 1.35999 381.41 2.11999 382.12 3.10999C382.83 4.08999 383.22 5.24999 383.29 6.56999L383.31 6.84999H378.86L378.83 6.65999C378.76 6.06999 378.54 5.55999 378.17 5.13999C377.8 4.71999 377.32 4.39999 376.72 4.16999C376.13 3.93999 375.44 3.82999 374.66 3.82999C373.88 3.82999 373.16 3.93999 372.58 4.16999C372 4.39999 371.55 4.71999 371.24 5.12999C370.93 5.53999 370.78 6.00999 370.78 6.53999V6.55999C370.78 7.27999 371.08 7.84999 371.69 8.28999C372.29 8.71999 373.24 9.06999 374.53 9.32999L376.92 9.80999C378.49 10.12 379.78 10.56 380.8 11.11C381.81 11.66 382.56 12.36 383.04 13.2C383.52 14.04 383.77 15.05 383.77 16.22V16.24C383.77 17.69 383.41 18.94 382.68 20C381.96 21.06 380.91 21.88 379.56 22.45C378.21 23.02 376.57 23.32 374.68 23.32L374.66 23.33Z" fill="url(#paint0_linear_357_4095)"/>
<defs>
<linearGradient id="paint0_linear_357_4095" x1="0" y1="11.66" x2="383.742" y2="11.66" gradientUnits="userSpaceOnUse">
<stop stop-color="#F4D68E"/>
<stop offset="0.23" stop-color="#EACD8A"/>
<stop offset="0.41" stop-color="#FAECAF"/>
<stop offset="0.59" stop-color="#FAECAE"/>
<stop offset="0.77" stop-color="#FBF8D0"/>
<stop offset="1" stop-color="#FAEDB3"/>
</linearGradient>
</defs>
</svg>
